<svg width="664" height="180" viewBox="0 0 664 180" fill="none" xmlns="http://www.w3.org/2000/svg">
<g clip-path="url(#clip0_364_20)">
<path d="M29.0197 179.611V57L-2 67.1053L-1.89657 179.611H28.9064H29.0197Z" fill="#8DC53E"/>
<path d="M80.1168 62.9197C80.1371 64.4978 80.1308 67.1145 80.1308 67.1145C114.857 50.3694 155.702 74.5319 155.702 108.809C155.702 143.086 155.99 179.611 155.99 179.611H124.403V109.934C124.403 86.3322 80.1168 85.2083 80.1168 109.934V179.611H49V57H80.1168C80.1168 57 80.0964 61.3416 80.1168 62.9197Z" fill="#8DC53E"/>
<path d="M174 95.2854C173.995 67.9493 174.051 57.1265 174.275 57.0364L204.764 57.0683L204.764 132.578C204.764 155.785 249.853 156.46 249.853 132.578L249.853 57.1156L280.196 57.1473V96.8963C280.196 120.178 280.048 132.578 280.048 132.578C280.048 195.569 174.275 195.344 174.217 132.578C174.217 132.578 174.004 114.313 174 95.2854Z" fill="#8DC53E"/>
<path d="M347 95.2854C346.995 67.9493 347.051 57.1265 347.275 57.0364L377.764 57.0683L377.764 132.578C377.764 155.785 422.853 156.46 422.853 132.578L422.853 57.1156L453.196 57.1473V96.8963C453.196 120.178 453.048 132.578 453.048 132.578C453.048 195.569 347.275 195.344 347.217 132.578C347.217 132.578 347.004 114.313 347 95.2854Z" fill="#A5A5A5"/>
<path d="M328.794 0L298.113 10.0235L298 180.133H328.794V0Z" fill="#A5A5A5"/>
<path d="M501.109 87H499.726V122.013C499.726 134.375 515.465 146.85 533.778 149.395V179.554C484.672 170.563 470.411 144.827 469 122.013L469.218 22.0235L499.726 12V57H533.778V87H517.501H501.109Z" fill="#A5A5A5"/>
<path fill-rule="evenodd" clip-rule="evenodd" d="M662.901 106.924C663.628 110.717 664 114.592 664 118.5H663.848C663.874 124.165 663.118 129.205 661.715 136H576.253C578.541 139.431 581.496 142.405 584.974 144.729C591.042 148.784 598.329 150.609 605.592 149.894C612.855 149.179 619.646 145.967 624.806 140.806L645.987 161.987C635.926 172.048 622.688 178.309 608.528 179.704C594.368 181.099 580.163 177.54 568.332 169.635C556.502 161.731 547.778 149.968 543.648 136.353C539.518 122.737 540.236 108.11 545.681 94.9651C551.126 81.8198 560.961 70.9691 573.509 64.2619C586.057 57.5547 600.543 55.406 614.498 58.1818C628.453 60.9576 641.014 68.4862 650.04 79.4849C656.386 87.2168 660.708 96.3272 662.716 106H662.768C662.814 106.312 662.858 106.619 662.901 106.924ZM631.463 106C630.304 103.313 628.768 100.782 626.885 98.4877C622.255 92.8461 615.812 88.9844 608.654 87.5606C601.496 86.1368 594.066 87.2389 587.629 90.6793C581.33 94.0466 576.363 99.4499 573.537 106H631.463Z" fill="#A5A5A5"/>
</g>
<defs>
<clipPath id="clip0_364_20">
<rect width="664" height="180" fill="white"/>
</clipPath>
</defs>
</svg>
