<svg width="1050" height="201" viewBox="0 0 1050 201" fill="none" xmlns="http://www.w3.org/2000/svg">
<g clip-path="url(#clip0_2_2)">
<path d="M1015.12 200.382H34.8829C15.6176 200.382 0 184.764 0 165.499V34.8829C0 15.6176 15.6176 0 34.8829 0H1015.12C1034.38 0 1050 15.6176 1050 34.8829V165.499C1050 184.764 1034.38 200.382 1015.12 200.382Z" fill="#007BFF"/>
<path d="M73.2992 107.655C73.2992 94.5301 80.1122 86.2143 90.532 86.2143C96.4433 86.2143 101.152 89.3202 103.356 93.929H103.557V76.2954C103.557 72.9891 105.561 71.1857 108.366 71.1857C111.171 71.1857 113.275 72.9891 113.275 76.2954V124.287C113.275 127.393 111.272 129.196 108.466 129.196C105.661 129.196 103.557 127.493 103.557 124.287V121.081H103.356C101.353 125.89 96.9442 129.096 90.4318 129.096C80.012 129.096 73.2992 120.88 73.2992 107.655ZM103.557 107.655C103.557 99.5397 99.5492 94.2296 93.3374 94.2296C87.0253 94.2296 83.1179 99.4395 83.1179 107.655C83.1179 115.871 87.0254 121.081 93.3374 121.081C99.5492 121.081 103.557 115.871 103.557 107.655Z" fill="white"/>
<path d="M205.751 128.795C202.445 128.795 200.542 126.792 200.542 123.084V103.347C200.542 97.9366 197.836 94.8307 193.027 94.8307C187.617 94.8307 184.311 98.7381 184.311 105.251V123.084C184.311 126.691 182.407 128.795 179.101 128.795C175.794 128.795 173.891 126.792 173.891 123.084V92.0253C173.891 88.6188 175.895 86.5148 179.001 86.5148C182.106 86.5148 183.91 88.3183 184.01 91.7247V94.2295H184.511C186.114 89.3202 190.823 86.2142 196.835 86.2142C205.651 86.2142 210.661 91.4242 210.661 100.542V123.084C210.861 126.792 209.058 128.795 205.751 128.795Z" fill="white"/>
<path d="M232.302 128.996C224.187 128.996 218.676 123.886 218.676 116.372C218.676 108.657 224.387 103.948 233.805 103.948H243.624V100.542C243.624 96.3335 241.019 94.1293 236.31 94.1293C233.204 94.1293 230.899 95.3316 228.595 97.3354C227.393 98.2372 226.291 98.7381 224.688 98.7381C222.383 98.7381 220.98 97.2353 220.98 95.1312C220.98 92.7267 222.684 90.2219 226.291 88.4185C228.896 87.0158 232.402 86.3145 236.911 86.3145C247.832 86.3145 253.943 91.5244 253.943 100.642V123.385C253.943 126.892 252.14 128.896 248.934 128.896C246.229 128.896 244.425 127.393 244.125 124.688V123.285H243.624C241.419 126.892 237.312 128.996 232.302 128.996ZM235.709 121.582C240.217 121.582 243.624 118.576 243.624 114.568V110.26H235.608C231.4 110.26 228.896 112.264 228.896 115.67C228.896 119.177 231.701 121.582 235.709 121.582Z" fill="white"/>
<path d="M266.668 95.3316H264.563C261.758 95.3316 260.155 93.8287 260.155 91.3239C260.155 88.8192 261.758 87.3163 264.563 87.3163H266.868V81.906C266.868 78.2991 268.671 76.3955 271.877 76.3955C275.084 76.3955 276.887 78.3993 276.887 81.906V87.3163H280.995C283.8 87.3163 285.403 88.8192 285.403 91.3239C285.403 93.8287 283.8 95.3316 280.995 95.3316H276.987V116.271C276.987 120.079 277.989 121.281 281.095 121.281C282.197 121.281 282.898 121.081 283.8 121.081C285.604 121.081 286.806 122.283 286.806 124.187C286.806 125.689 286.105 126.992 284.702 127.894C283.299 128.795 281.095 129.296 278.29 129.296C270.074 129.296 266.567 125.89 266.567 117.374V95.3316H266.668Z" fill="white"/>
<path d="M291.715 105.05C291.715 93.7286 299.23 86.0139 310.351 86.0139C320.871 86.0139 328.385 93.5282 328.385 103.748C328.385 108.356 327.083 109.96 323.175 109.96H302.135V111.763C302.135 117.574 305.842 121.281 311.954 121.281C315.16 121.281 317.464 120.48 319.268 118.977C321.271 117.474 321.973 116.873 323.576 116.873C325.68 116.873 327.183 118.376 327.183 120.68C327.183 122.483 326.081 124.287 324.077 125.689C321.372 127.994 316.562 129.397 311.252 129.397C299.129 129.397 291.615 122.283 291.615 110.46V105.05H291.715ZM318.566 103.447C318.566 97.7363 315.46 94.0292 310.551 94.0292C305.441 94.0292 302.235 97.8364 302.235 103.347V103.447H318.566Z" fill="white"/>
<path d="M360.045 94.1293C359.745 92.927 359.645 92.2256 359.645 91.6245C359.645 88.719 361.749 86.615 364.855 86.615C367.56 86.615 369.363 88.4184 369.864 91.7247L375.074 117.674H375.575L381.787 93.1274C382.989 88.3182 384.692 86.5148 388.099 86.5148C391.505 86.5148 393.309 88.3182 394.511 93.1274L400.823 117.674H401.324L406.734 91.7247C407.335 88.5186 409.139 86.615 411.744 86.615C414.85 86.615 416.753 88.6188 416.753 91.3239C416.753 91.9251 416.553 92.8268 416.252 94.0291L409.039 120.58C407.335 126.791 405.332 128.795 401.725 128.795C397.817 128.795 395.814 126.791 394.21 120.58L388.199 98.7381H387.798L381.987 120.58C380.384 126.892 378.581 128.795 374.673 128.795C370.866 128.795 368.762 126.691 367.159 120.58L360.045 94.1293Z" fill="white"/>
<path d="M427.574 70.9852C430.98 70.9852 433.485 73.2896 433.485 76.3955C433.485 79.5014 430.98 81.8058 427.574 81.8058C424.268 81.8058 421.763 79.5014 421.763 76.3955C421.763 73.2896 424.268 70.9852 427.574 70.9852ZM427.574 128.795C424.368 128.795 422.464 126.792 422.464 123.084V92.2257C422.464 88.4184 424.468 86.5148 427.674 86.5148C430.88 86.5148 432.784 88.5186 432.784 92.2257V123.185C432.784 126.892 430.78 128.795 427.574 128.795Z" fill="white"/>
<path d="M444.707 95.3316H442.603C439.797 95.3316 438.194 93.8287 438.194 91.3239C438.194 88.8192 439.797 87.3163 442.603 87.3163H444.907V81.906C444.907 78.2991 446.71 76.3955 449.917 76.3955C453.123 76.3955 454.926 78.3993 454.926 81.906V87.3163H459.034C461.839 87.3163 463.442 88.8192 463.442 91.3239C463.442 93.8287 461.839 95.3316 459.034 95.3316H455.026V116.271C455.026 120.079 456.028 121.281 459.134 121.281C460.236 121.281 460.938 121.081 461.839 121.081C463.643 121.081 464.845 122.283 464.845 124.187C464.845 125.689 464.144 126.992 462.741 127.894C461.338 128.795 459.134 129.296 456.329 129.296C448.113 129.296 444.606 125.89 444.606 117.374V95.3316H444.707Z" fill="white"/>
<path d="M501.916 128.795C498.609 128.795 496.706 126.792 496.706 123.084V103.447C496.706 98.0368 493.9 94.9309 489.091 94.9309C483.781 94.9309 480.274 98.9385 480.274 105.351V123.185C480.274 126.792 478.371 128.896 475.064 128.896C471.758 128.896 469.955 126.892 469.955 123.185V77.5978C469.955 73.991 471.758 71.887 475.165 71.887C478.471 71.887 480.274 73.991 480.274 77.5978V94.2295H480.775C482.178 89.5206 487.288 86.2142 493.199 86.2142C501.815 86.2142 507.025 91.6246 507.025 100.642V123.084C507.126 126.792 505.222 128.795 501.916 128.795Z" fill="white"/>
<path d="M154.454 86.2142C150.146 86.2142 145.938 88.3182 143.633 92.927C141.329 88.3182 137.121 86.2142 132.813 86.2142C126.1 86.2142 120.088 90.9232 120.088 99.3392C120.088 113.566 139.525 120.78 143.633 129.296C147.741 120.78 167.178 113.566 167.178 99.3392C167.178 90.3221 160.465 86.2142 154.454 86.2142ZM150.346 96.2333C153.352 96.2333 156.057 98.2371 156.057 102.245C156.057 108.557 147.741 112.865 143.232 117.474C138.824 112.865 130.408 108.557 130.408 102.245C130.408 98.3373 133.013 96.2333 136.119 96.2333C140.227 96.2333 142.331 100.842 143.132 103.046C144.134 100.842 146.338 96.2333 150.346 96.2333Z" fill="white"/>
<path d="M578.008 148.557H580.88L578.189 159.664C577.746 160.882 577.826 162.227 578.411 163.385C579.155 164.285 580.313 164.745 581.478 164.603C582.806 164.653 584.107 164.22 585.134 163.385C586.183 162.384 586.891 161.083 587.159 159.664L589.878 148.557H592.764L590.045 159.929C589.64 162.081 588.509 164.031 586.838 165.461C585.127 166.76 583.01 167.42 580.857 167.325C578.388 167.325 576.698 166.732 575.779 165.528C574.859 164.324 574.691 162.428 575.258 159.983L578.008 148.557Z" fill="white"/>
<path d="M592.356 166.827L596.927 147.878L605.608 159.053C605.839 159.368 606.061 159.687 606.292 160.046C606.523 160.406 606.745 160.824 607.026 161.269L610.084 148.624H612.802L608.213 167.559L599.342 156.178L598.662 155.225C598.438 154.894 598.254 154.538 598.114 154.165L595.047 166.881H592.356V166.827Z" fill="white"/>
<path d="M612.553 166.827L616.943 148.557H619.87L615.52 166.827H612.553Z" fill="white"/>
<path d="M619.634 166.827L624.069 148.557H634.082L633.438 151.06H626.357L625.288 155.593H632.374L631.739 158.182H624.626L622.561 166.741H619.634V166.827Z" fill="white"/>
<path d="M632.917 166.827L637.298 148.557H640.225L635.844 166.827H632.917Z" fill="white"/>
<path d="M639.98 166.827L644.37 148.557H654.383L653.785 151.06H646.699L645.63 155.638H652.716L652.077 158.222H644.959L643.537 164.113H650.622L649.979 166.809L639.98 166.827Z" fill="white"/>
<path d="M653.368 166.827L657.758 148.557H661.69C663.482 148.485 665.276 148.62 667.036 148.961C667.939 149.193 668.769 149.644 669.451 150.273C670.292 151.115 670.85 152.193 671.05 153.36C671.263 154.797 671.187 156.261 670.828 157.669C670.444 159.197 669.809 160.651 668.948 161.974C668.138 163.205 667.078 164.255 665.836 165.056C664.919 165.676 663.894 166.122 662.814 166.373C661.254 166.692 659.662 166.826 658.071 166.773H653.368V166.827ZM656.938 164.104H659.407C660.447 164.129 661.487 164.037 662.506 163.83C663.209 163.651 663.874 163.346 664.468 162.931C665.304 162.34 666.008 161.582 666.533 160.707C667.116 159.756 667.531 158.713 667.761 157.624C668.034 156.637 668.114 155.608 667.997 154.591C667.888 153.768 667.539 152.995 666.991 152.367C666.56 151.914 666.001 151.601 665.387 151.469C664.334 151.254 663.259 151.162 662.184 151.194H660.046L656.938 164.104Z" fill="white"/>
<path d="M684.216 158.604L682.25 166.818H679.531L683.912 148.548H688.348C689.297 148.521 690.246 148.597 691.179 148.773C691.716 148.871 692.211 149.124 692.602 149.5C693.085 149.959 693.403 150.562 693.508 151.217C693.627 152.004 693.593 152.806 693.408 153.58C693.2 154.436 692.838 155.247 692.339 155.975C691.881 156.661 691.289 157.249 690.599 157.705C690.047 158.038 689.444 158.28 688.814 158.424C687.849 158.599 686.869 158.677 685.888 158.658H684.198L684.216 158.604ZM685.018 156.178H685.747C686.903 156.259 688.063 156.069 689.132 155.625C689.811 155.198 690.277 154.506 690.414 153.72C690.695 153.027 690.551 152.235 690.042 151.684C689.122 151.186 688.071 150.979 687.029 151.091H686.3L685.018 156.178Z" fill="white"/>
<path d="M703.321 166.827L702.415 162.113H695.275L692.067 166.827H689.005L702.274 147.878L706.352 166.827H703.321ZM697.015 159.637H701.998L701.174 155.459C701.123 155.162 701.094 154.861 701.087 154.56C701.042 154.187 701.024 153.812 701.033 153.437C700.865 153.824 700.669 154.199 700.449 154.56C700.286 154.892 700.1 155.212 699.891 155.517L697.015 159.637Z" fill="white"/>
<path d="M710.62 166.827L712.627 158.487L708.975 148.602H712.038L714.326 154.812C714.374 155.026 714.435 155.237 714.507 155.445C714.593 155.719 714.647 155.984 714.733 156.263L715.277 155.445C715.472 155.171 715.653 154.946 715.834 154.726L721.176 148.602H724.102L715.553 158.433L713.56 166.773H710.633L710.62 166.827Z" fill="white"/>
<path d="M738.401 157.8C738.427 157.405 738.474 157.012 738.541 156.622C738.55 156.182 738.595 155.743 738.677 155.31C738.496 155.719 738.314 156.124 738.079 156.582C737.837 157.025 737.563 157.45 737.259 157.854L730.214 167.591L727.949 157.669C727.85 157.278 727.771 156.882 727.713 156.483C727.664 156.111 727.635 155.736 727.627 155.36C727.532 155.719 727.391 156.124 727.256 156.582C727.105 157.032 726.922 157.47 726.707 157.894L722.594 166.881H719.903L728.769 147.887L731.292 159.408C731.35 159.705 731.393 160.005 731.419 160.307C731.467 160.841 731.545 161.372 731.655 161.898C731.976 161.358 732.38 160.72 732.937 159.907C733.05 159.747 733.153 159.581 733.245 159.408L741.155 147.887L740.874 166.962H738.183L738.401 157.8Z" fill="white"/>
<path d="M743.262 166.827L747.652 148.557H757.619L757.053 151.091H749.949L748.898 155.67H755.965L755.326 158.253H748.241L746.818 164.144H753.904L753.265 166.84L743.262 166.827Z" fill="white"/>
<path d="M756.563 166.827L761.18 147.878L769.869 159.053C770.091 159.368 770.322 159.687 770.553 160.046C770.784 160.406 771.006 160.824 771.287 161.269L774.345 148.624H777.037L772.456 167.559L763.608 156.178L762.942 155.225C762.712 154.896 762.525 154.54 762.385 154.165L759.318 166.881H756.572L756.563 166.827Z" fill="white"/>
<path d="M786.365 151.06L782.573 166.786H779.646L783.438 151.06H778.681L779.279 148.525H791.706L791.122 151.06H786.365Z" fill="white"/>
<path d="M789.432 163.151L792.028 162.091C792.011 162.791 792.294 163.465 792.807 163.946C793.421 164.404 794.179 164.629 794.946 164.58C795.754 164.604 796.544 164.345 797.179 163.848C797.815 163.366 798.256 162.674 798.42 161.898C798.697 160.842 798.053 159.867 796.495 159.049C796.336 158.942 796.168 158.85 795.992 158.775C794.692 158.164 793.562 157.246 792.703 156.101C792.241 155.204 792.145 154.164 792.436 153.198C792.774 151.754 793.613 150.472 794.805 149.577C796.03 148.642 797.537 148.145 799.082 148.166C800.192 148.114 801.294 148.383 802.253 148.939C803.009 149.445 803.494 150.262 803.576 151.163L800.998 152.34C800.839 151.843 800.538 151.401 800.133 151.069C799.735 150.793 799.259 150.651 798.774 150.664C798.051 150.644 797.343 150.869 796.767 151.302C796.215 151.711 795.834 152.308 795.698 152.978C795.417 154.034 796.2 155.095 797.963 156.061C798.067 156.127 798.174 156.187 798.284 156.24C799.508 156.768 800.565 157.614 801.343 158.689C801.818 159.613 801.917 160.683 801.619 161.677C801.265 163.311 800.343 164.77 799.014 165.798C797.666 166.823 796.01 167.369 794.311 167.348C793.045 167.434 791.791 167.056 790.787 166.287C789.824 165.54 789.313 164.358 789.432 163.151Z" fill="white"/>
<path d="M810.965 166.827L815.346 148.557H818.273L813.883 166.827H810.965Z" fill="white"/>
<path d="M818.078 166.827L822.654 147.878L831.352 158.986C831.575 159.305 831.806 159.619 832.037 159.983C832.268 160.347 832.49 160.756 832.761 161.201L835.829 148.557H838.52L833.958 167.505L825.1 156.124L824.416 155.171C824.186 154.842 823.999 154.486 823.859 154.111L820.806 166.827H818.087L818.078 166.827Z" fill="white"/>
<path d="M847.839 151.06L844.042 166.786H841.116L844.908 151.06H840.155L840.753 148.525H853.18L852.591 151.06H847.839Z" fill="white"/>
<path d="M850.988 166.827L855.382 148.557H865.435L864.837 151.091H857.752L856.682 155.67H863.768L863.138 158.253H856.053L854.635 164.144H861.707L861.068 166.84L850.988 166.827Z" fill="white"/>
<path d="M869.046 158.604L867.08 166.764H864.334L868.756 148.507H872.834C873.745 148.485 874.656 148.559 875.552 148.728C876.121 148.83 876.647 149.1 877.061 149.501C877.522 149.969 877.825 150.569 877.926 151.217C878.053 151.986 878.024 152.773 877.84 153.531C877.576 154.84 876.921 156.039 875.96 156.973C875 157.813 873.802 158.339 872.53 158.478L876.698 166.764H873.404L869.409 158.604H869.046ZM869.825 156.357H870.374C871.47 156.445 872.571 156.26 873.577 155.818C874.237 155.362 874.681 154.657 874.804 153.868C875.04 152.87 874.945 152.152 874.487 151.747C873.626 151.224 872.614 151.001 871.61 151.114H871.067L869.825 156.357Z" fill="white"/>
<path d="M878.374 166.827L882.755 148.557H892.768L892.265 151.06H885.179L884.115 155.593H891.196L890.557 158.182H883.399L881.333 166.741H878.374L878.374 166.827Z" fill="white"/>
<path d="M902.545 166.827L901.638 162.113H894.498L891.295 166.827H888.228L901.489 147.878L905.603 166.881L902.545 166.827ZM896.202 159.637H901.185L900.356 155.459C900.295 155.163 900.261 154.862 900.257 154.56C900.234 154.186 900.234 153.811 900.257 153.437C900.09 153.827 899.89 154.203 899.659 154.56C899.501 154.891 899.319 155.211 899.115 155.517L896.202 159.637Z" fill="white"/>
<path d="M924.622 152.996C924.005 152.296 923.228 151.753 922.356 151.41C921.477 151.033 920.527 150.848 919.57 150.866C917.651 150.859 915.792 151.531 914.328 152.763C912.784 154.042 911.71 155.793 911.275 157.741C910.755 159.388 910.988 161.178 911.914 162.639C912.839 163.942 914.388 164.666 915.991 164.544C917.077 164.553 918.154 164.352 919.162 163.951C920.307 163.53 921.387 162.953 922.37 162.235L921.509 165.6C920.621 166.169 919.649 166.598 918.628 166.872C917.618 167.146 916.575 167.28 915.529 167.272C914.273 167.3 913.025 167.069 911.864 166.593C910.831 166.156 909.935 165.454 909.268 164.558C908.572 163.661 908.128 162.597 907.981 161.475C907.791 160.205 907.868 158.909 908.208 157.669C908.527 156.336 909.069 155.065 909.811 153.908C910.548 152.725 911.491 151.681 912.598 150.826C913.654 149.938 914.864 149.245 916.168 148.782C917.41 148.33 918.723 148.101 920.046 148.103C921.04 148.088 922.03 148.24 922.972 148.552C923.86 148.882 924.678 149.371 925.387 149.995L924.622 152.996Z" fill="white"/>
<path d="M924.898 166.827L929.279 148.557H939.282L938.68 151.091H931.599L930.529 155.67H937.615L936.972 158.253H929.877L928.454 164.144H935.554L934.915 166.84L924.898 166.827Z" fill="white"/>
<path d="M871.696 132.651H851.663L879.507 32.791H899.573L871.696 132.651Z" fill="white"/>
<path d="M861.281 35.9364C859.913 34.0162 857.774 33.0562 854.866 33.0562H744.585L739.148 52.638H839.426L833.572 73.5365H733.304L716.668 133.14H736.733L747.878 93.1498H838.062C840.961 93.13 843.765 92.1262 846.009 90.3055C848.383 88.5496 850.104 86.0623 850.902 83.233L862.047 43.2425C862.925 40.2185 862.645 37.8146 861.281 35.9364Z" fill="white"/>
<path d="M704.952 126.387C703.84 130.337 700.221 133.076 696.086 133.095H592.678C590.223 133.275 587.845 132.201 586.371 130.247C584.953 128.166 584.627 125.537 585.497 123.179L610.718 33.0966H630.788L608.253 113.639H688.511L711.045 33.0966H731.111L704.952 126.387Z" fill="white"/>
<path d="M934.217 32.9707L959.583 83.0128L906.241 133.055L934.217 32.9707Z" fill="#078142"/>
<path d="M916.394 32.9707L941.76 83.0128L888.378 133.055L916.394 32.9707Z" fill="#EA7726"/>
</g>
<defs>
<clipPath id="clip0_2_2">
<rect width="1050" height="200.382" fill="white"/>
</clipPath>
</defs>
</svg>
