<svg width="512" height="512" viewBox="0 0 512 512" fill="none" xmlns="http://www.w3.org/2000/svg">
<g clip-path="url(#clip0_503_77)">
<path d="M246.549 379.893C239.495 379.893 233.164 375.562 230.607 368.988L208.034 310.944H98.6912L76.7062 368.984C74.2195 375.55 67.9304 379.893 60.9091 379.893C48.9721 379.893 40.8009 367.849 45.2126 356.757L126.939 151.282C131.329 140.244 142.007 133 153.885 133C165.764 133 176.441 140.244 180.832 151.282L262.442 356.467C266.91 367.697 258.636 379.893 246.549 379.893ZM153.015 168.519L110.879 279.255H195.847L153.015 168.519Z" fill="white"/>
<path d="M313.382 268.262C302.206 264.126 302.206 248.319 313.382 244.184C341.491 233.783 363.654 211.62 374.055 183.511C378.191 172.335 393.997 172.335 398.133 183.511C408.534 211.62 430.697 233.783 458.806 244.184C469.982 248.319 469.982 264.126 458.806 268.262C430.697 278.663 408.534 300.825 398.133 328.935C393.998 340.111 378.191 340.111 374.055 328.935C363.654 300.825 341.491 278.663 313.382 268.262Z" stroke="white" stroke-width="24"/>
</g>
<defs>
<clipPath id="clip0_503_77">
<rect width="512" height="512" fill="white"/>
</clipPath>
</defs>
</svg>
