<svg width="512" height="512" viewBox="0 0 512 512" fill="none" xmlns="http://www.w3.org/2000/svg">
<g clip-path="url(#clip0_481_21)">
<path d="M495.593 193.809C480.004 111.265 397.604 101 397.604 101H28.5794C16.3989 101 14.8864 117.125 14.8864 117.125C14.8864 117.125 13.2328 265.118 14.4427 356.008C17.75 404.989 66.5931 410 66.5931 410C66.5931 410 233.309 409.535 307.904 409.01C357.07 400.402 362.011 357.16 361.507 333.558C449.271 338.408 511.182 276.353 495.593 193.809ZM272.512 264.755C247.385 294.115 191.625 345.096 191.625 345.096C191.625 345.096 189.185 347.501 185.373 345.561C183.841 344.409 183.195 343.742 183.195 343.742C174.262 334.831 115.275 282.132 101.844 263.845C87.546 244.346 80.8507 209.287 100.009 188.879C119.187 168.47 160.609 166.934 187.995 197.103C187.995 197.103 219.555 161.095 257.932 177.644C296.329 194.213 294.877 238.486 272.512 264.755ZM396.999 274.413C378.285 276.757 363.079 274.979 363.079 274.979V160.185H398.774C398.774 160.185 438.522 171.319 438.522 213.49C438.522 252.146 418.658 267.382 396.999 274.413Z" stroke="white" stroke-width="32"/>
</g>
<defs>
<clipPath id="clip0_481_21">
<rect width="512" height="512" fill="white"/>
</clipPath>
</defs>
</svg>
