<svg width="3851" height="1141" viewBox="0 0 3851 1141" fill="none" xmlns="http://www.w3.org/2000/svg">
<g clip-path="url(#clip0_134_17)">
<path d="M178.003 1070V365.335L-1.40234 423.412L-0.804149 1070H177.348H178.003Z" fill="#1E4D53"/>
<path d="M463.37 399.356C463.487 408.426 463.45 423.465 463.45 423.465C664.295 327.228 900.526 466.093 900.526 663.089C900.526 860.084 902.189 1070 902.189 1070H719.504V669.557C719.504 533.911 463.37 527.452 463.37 669.557V1070H283.402V365.335H463.37C463.37 365.335 463.251 390.287 463.37 399.356Z" fill="#1E4D53"/>
<path d="M1006.35 585.367C1006.32 428.262 1006.65 366.062 1007.94 365.544L1184.28 365.728L1184.28 799.693C1184.28 933.069 1445.05 936.944 1445.05 799.693L1445.05 365.999L1620.55 366.182V594.625C1620.55 728.431 1619.69 799.693 1619.69 799.693C1619.69 1161.71 1007.94 1160.42 1007.6 799.693C1007.6 799.693 1006.37 694.721 1006.35 585.367Z" fill="#1E4D53"/>
<path d="M2006.92 585.367C2006.89 428.262 2007.21 366.062 2008.51 365.544L2184.84 365.728L2184.85 799.693C2184.85 933.069 2445.62 936.944 2445.62 799.693L2445.62 365.999L2621.11 366.182V594.625C2621.11 728.431 2620.26 799.693 2620.26 799.693C2620.26 1161.71 2008.51 1160.42 2008.17 799.693C2008.17 799.693 2006.94 694.721 2006.92 585.367Z" fill="#1E4D53"/>
<path d="M1901.62 37.7482L1724.17 95.3548L1723.52 1073H1901.62V37.7482Z" fill="#1E4D53"/>
<path d="M2908.38 537.75H2900.38V738.975C2900.38 810.022 2991.41 881.715 3097.33 896.343V1069.67C2813.31 1018 2730.83 870.089 2722.68 738.975L2723.94 164.32L2900.38 106.714V365.335H3097.33V537.75H3003.19H2908.38Z" fill="#1E4D53"/>
<path fill-rule="evenodd" clip-rule="evenodd" d="M3833.96 650.343C3838.16 671.992 3840.31 694.107 3840.31 716.412H3839.43C3839.58 748.752 3835.21 777.523 3827.1 816.311H3332.82C3346.05 835.897 3363.14 852.876 3383.26 866.144C3418.36 889.29 3460.5 899.71 3502.5 895.626C3544.51 891.542 3583.78 873.209 3613.63 843.749L3736.13 964.661C3677.94 1022.1 3601.38 1057.84 3519.48 1065.8C3437.59 1073.76 3355.43 1053.45 3287.01 1008.32C3218.59 963.197 3168.13 896.051 3144.25 818.325C3120.36 740.599 3124.51 657.102 3156.01 582.061C3187.5 507.02 3244.38 445.079 3316.95 406.79C3389.52 368.502 3473.3 356.235 3554.01 372.081C3634.72 387.927 3707.37 430.905 3759.57 493.692C3796.27 537.829 3821.27 589.837 3832.89 645.054H3833.19C3833.45 646.839 3833.71 648.601 3833.96 650.343ZM3652.13 645.054C3645.43 629.717 3636.55 615.268 3625.65 602.171C3598.88 569.965 3561.61 547.92 3520.21 539.792C3478.82 531.664 3435.84 537.956 3398.62 557.596C3362.18 576.818 3333.46 607.663 3317.11 645.054H3652.13Z" fill="#1E4D53"/>
</g>
<defs>
<clipPath id="clip0_134_17">
<rect width="3850.47" height="1036.27" fill="white" transform="translate(0 37.7463)"/>
</clipPath>
</defs>
</svg>
