<svg width="396" height="107" viewBox="0 0 396 107" fill="none" xmlns="http://www.w3.org/2000/svg">
<g clip-path="url(#clip0_556_2)">
<path d="M18.7135 106.443V32.4746L0 38.5709L0.0623966 106.443H18.6451H18.7135Z" fill="#20808D"/>
<path d="M49.8918 36.0458C49.904 36.9979 49.9002 38.5765 49.9002 38.5765C70.8499 28.4745 95.4907 43.0512 95.4907 63.7297C95.4907 84.4083 95.6642 106.443 95.6642 106.443H76.6087V64.4087C76.6087 50.17 49.8918 49.492 49.8918 64.4087V106.443H31.1198V32.4746H49.8918C49.8918 32.4746 49.8795 35.0938 49.8918 36.0458Z" fill="#20808D"/>
<path d="M104.685 55.5713C104.682 39.0801 104.716 34.7883 104.851 34.7339L123.244 34.7532V78.0691C123.244 92.0695 150.445 92.4763 150.445 78.0691V34.7817L168.751 34.8008L168.751 56.5431C168.751 70.5887 168.661 78.0691 168.661 78.0691C168.661 116.07 104.851 115.935 104.816 78.0691C104.816 78.0691 104.688 67.0502 104.685 55.5713Z" fill="#20808D"/>
<path d="M198.103 0L179.594 6.04695L179.594 104.749H198.171L198.103 0Z" fill="#20808D"/>
<path d="M304.835 51.0281H304V70.0359C304 77.4938 313.495 85.0194 324.543 86.5549V104.749C294.919 99.3249 286.315 83.799 285.464 70.0359L285.596 12.0939L304 6.04695V33.0168H324.543V51.0281H314.724H304.835Z" fill="#20808D"/>
<path d="M210.031 53.7421C210.028 37.2509 210.062 32.9592 210.197 32.9048L228.591 32.924V76.2399C228.591 90.2403 255.791 90.6471 255.791 76.2399V32.9525L274.097 32.9717L274.097 54.7139C274.097 68.7595 274.007 76.2399 274.007 76.2399C274.007 114.241 210.197 114.105 210.162 76.2399C210.162 76.2399 210.034 65.2211 210.031 53.7421Z" fill="#20808D"/>
<path fill-rule="evenodd" clip-rule="evenodd" d="M394.743 78.514C395.561 75.5114 395.999 72.3514 395.999 69.0892C395.999 49.3562 380.002 33.3594 360.269 33.3594C340.536 33.3594 324.539 49.3562 324.539 69.0892C324.539 88.8222 340.536 104.819 360.269 104.819C370.247 104.819 379.27 100.729 385.752 94.1338L376.797 85.7828L373.559 82.8964C372.845 84.2007 371.812 85.3999 370.499 86.4217C367.803 88.5197 364.147 89.6983 360.335 89.6983C356.523 89.6983 352.868 88.5197 350.172 86.4217C347.477 84.3238 345.962 81.4784 345.962 78.5115H360.335H374.709C374.709 78.5123 374.709 78.5131 374.709 78.514H394.743ZM374.713 62.5788C374.713 59.6119 373.199 56.7665 370.503 54.6686C367.808 52.5707 364.152 51.3921 360.34 51.3921C356.528 51.3921 352.872 52.5707 350.176 54.6686C347.481 56.7665 345.967 59.6119 345.967 62.5788L360.34 62.5788H374.713Z" fill="#20808D"/>
</g>
<defs>
<clipPath id="clip0_556_2">
<rect width="396" height="106.519" fill="white"/>
</clipPath>
</defs>
</svg>
