<svg width="512" height="512" viewBox="0 0 512 512" fill="none" xmlns="http://www.w3.org/2000/svg">
<g clip-path="url(#clip0_481_27)">
<path d="M146.993 145.727C86.0942 145.727 36.7261 195.098 36.7261 256C36.7261 316.902 86.0942 366.272 146.993 366.272C199.291 366.272 243.085 329.863 254.412 281.007H271.524C259.91 339.171 208.57 383 146.993 383C76.8567 383 20 326.14 20 256C20 185.86 76.8567 129 146.993 129C214.319 129 269.409 181.395 273.714 247.637H352.717L283.161 177.938L294.999 166.122L364.561 235.826L364.473 137.371L381.199 137.356L381.286 235.86L450.882 166.122L462.72 177.938L393.164 247.637H491.714V264.363H393.041L462.72 334.187L450.882 346.004L381.322 276.301L381.408 374.797L364.682 374.81L364.595 276.262L294.999 346.004L283.161 334.187L352.84 264.363H296.941V264.28H200.765V264.363H146.989V247.637H256.948C252.673 190.641 205.078 145.727 146.993 145.727Z" fill="white" stroke="white" stroke-width="2"/>
</g>
<defs>
<clipPath id="clip0_481_27">
<rect width="512" height="512" fill="white"/>
</clipPath>
</defs>
</svg>
