<svg width="512" height="512" viewBox="0 0 512 512" fill="none" xmlns="http://www.w3.org/2000/svg">
<g clip-path="url(#clip0_481_31)">
<path fill-rule="evenodd" clip-rule="evenodd" d="M112.601 27L242.943 146.894V146.871V27.2742H268.313V147.431L399.25 27V163.7H453V360.873H399.41V482.595L268.325 367.614V483.92H242.954V369.51L112.75 484V360.884H59V163.7H112.613V27H112.601ZM223.821 188.721H84.3703V335.852H112.716V289.444L223.821 188.721ZM138.12 300.549V428.166L242.943 335.989V205.493L138.12 300.549ZM269.057 334.767V205.367L373.914 300.435V360.884H374.051V426.864L269.057 334.767ZM399.41 335.852H427.63V188.721H289.22L399.41 288.404V335.852ZM373.88 163.7V84.5592L287.836 163.7H373.88ZM224.015 163.7H137.972V84.5592L224.015 163.7Z" fill="white"/>
</g>
<defs>
<clipPath id="clip0_481_31">
<rect width="512" height="512" fill="white"/>
</clipPath>
</defs>
</svg>
