<svg width="3393" height="906" viewBox="0 0 3393 906" fill="none" xmlns="http://www.w3.org/2000/svg">
<rect width="3392.23" height="906" rx="63.2093" fill="white"/>
<path d="M622.946 113.736L422.889 313.983H622.946V113.736ZM622.946 113.736V168.559M422.425 84.2803V842.792M622.946 514.188L422.889 313.941M622.946 514.188V801.263L422.889 601.016M622.946 514.188L422.868 313.941M622.946 514.188L622.925 599.857H708.785V313.941H422.868M422.889 313.941V601.016M422.889 313.941L222.81 514.188M422.889 601.016L222.81 801.263V514.188M222.81 514.188L222.789 599.857H136.951V313.941H422.868M222.81 514.188L422.868 313.941M422.868 313.983L222.789 113.736V313.983H422.868Z" stroke="#20808D" stroke-width="21.0698" stroke-miterlimit="10"/>
<path d="M1294.95 358.78C1307.44 335.414 1324.91 317.42 1347.43 304.757C1369.92 292.137 1396.29 285.816 1426.55 285.816C1456.81 285.816 1481.86 292.031 1502.82 304.483C1523.81 316.936 1539.51 333.433 1549.89 353.976C1560.28 374.54 1565.48 397.064 1565.48 421.547V455.469H1330.11C1332.01 484.883 1341.93 508.27 1359.89 525.611C1377.84 542.972 1401.94 551.632 1432.22 551.632C1456.79 551.632 1475.62 546.638 1488.64 536.651C1501.71 526.664 1511.23 512.821 1517.3 495.081H1571.19C1564.01 522.598 1549.37 546.47 1527.24 566.633C1505.14 586.818 1473.45 596.89 1432.24 596.89C1401.22 596.89 1373.9 590.569 1350.26 577.948C1326.64 565.327 1308.37 547.312 1295.52 523.925C1282.67 500.538 1276.24 473.021 1276.24 441.332C1276.24 409.643 1282.48 382.147 1294.97 358.759L1294.95 358.78ZM1508.79 413.056C1508.79 387.414 1502.17 367.356 1488.94 352.817C1475.71 338.3 1454.91 331.052 1426.53 331.052C1400.07 331.052 1378.41 338.111 1361.59 352.249C1344.76 366.386 1334.45 386.677 1330.68 413.056H1508.79ZM1636.19 294.286V341.229C1636.19 343.884 1637.52 345.19 1640.18 345.19C1641.69 345.19 1642.81 344.811 1643.59 344.052C1644.37 343.294 1645.11 341.798 1645.84 339.544C1655.66 308.634 1680.06 293.169 1719.02 293.169H1743.97V344.052H1711.62C1686.28 344.052 1667.38 350.078 1654.88 362.151C1642.39 374.224 1636.15 394.009 1636.15 421.547V588.399H1585.1V294.265H1636.19V294.286ZM2043.73 526.453C2030.31 550.009 2012.9 567.645 1991.54 579.318C1970.17 590.99 1947.18 596.848 1922.62 596.848C1874.22 596.848 1840.17 577.632 1820.51 539.159C1819 536.167 1817.1 534.65 1814.85 534.65C1812.59 534.65 1811.43 535.787 1811.43 538.042V695.833H1760.38V294.307H1811.43V344.642C1811.43 346.897 1812.57 348.035 1814.85 348.035C1817.12 348.035 1819 346.518 1820.51 343.526C1840.17 305.052 1874.22 285.837 1922.62 285.837C1947.18 285.837 1970.17 291.694 1991.54 303.367C2012.9 315.039 2030.28 332.675 2043.73 356.252C2057.15 379.808 2063.87 408.21 2063.87 441.353C2063.87 474.495 2057.15 502.876 2043.73 526.453ZM1984.73 360.171C1966 340.745 1941.33 331.031 1910.71 331.031C1880.1 331.031 1855.4 340.745 1836.69 360.171C1817.96 379.597 1811.1 406.651 1811.1 441.332C1811.1 476.012 1817.96 503.087 1836.69 522.492C1855.43 541.919 1880.1 551.632 1910.71 551.632C1941.33 551.632 1966.02 541.94 1984.73 522.492C2003.46 503.066 2012.82 476.012 2012.82 441.332C2012.82 406.651 2003.46 379.597 1984.73 360.171ZM2137.95 181.162V588.378H2086.9V181.204H2137.95V181.162ZM2179.98 358.759C2192.46 335.393 2209.95 317.399 2232.47 304.736C2254.95 292.116 2281.33 285.795 2311.57 285.795C2341.8 285.795 2366.89 292.01 2387.86 304.462C2408.84 316.915 2424.54 333.412 2434.93 353.955C2445.34 374.519 2450.52 397.043 2450.52 421.526V455.448H2215.15C2217.05 484.862 2226.97 508.249 2244.92 525.59C2262.87 542.951 2286.98 551.611 2317.25 551.611C2341.82 551.611 2360.64 546.617 2373.68 536.63C2386.74 526.643 2396.27 512.8 2402.33 495.06H2456.23C2449.05 522.577 2434.38 546.449 2412.28 566.612C2390.18 586.797 2358.49 596.869 2317.28 596.869C2286.26 596.869 2258.93 590.548 2235.29 577.927C2211.67 565.306 2193.41 547.291 2180.55 523.904C2167.7 500.517 2161.27 472.999 2161.27 441.311C2161.27 409.622 2167.51 382.126 2180.01 358.738H2179.98V358.759ZM2393.82 413.035C2393.82 387.393 2387.21 367.335 2373.97 352.796C2360.74 338.279 2339.95 331.031 2311.57 331.031C2285.12 331.031 2263.44 338.09 2246.63 352.228C2229.79 366.365 2219.51 386.656 2215.72 413.035H2393.82ZM2427.81 577.063L2544.64 432.819L2448.79 305.579V294.265H2504.94L2584.95 403.975L2671.16 294.265H2728.43V306.148L2618.4 441.332L2719.94 577.063V588.378H2664.93L2578.14 470.176L2485.14 588.378H2427.85V577.063H2427.81ZM2802.55 198.545V262.196H2742.93V198.545H2802.55ZM2799.46 588.399H2748.38V294.286H2799.46V588.399ZM2815.55 294.286H2871.09V215.106H2922.17V294.286H2980.61L2994.96 337.394H2922.17V478.098C2922.17 497.314 2921.68 511.557 2920.73 520.807C2919.79 530.056 2919.32 535.619 2919.32 537.494C2919.32 540.149 2920.06 542.214 2921.58 543.71C2923.09 545.227 2925.16 545.964 2927.83 545.964C2929.71 545.964 2935.29 545.501 2944.56 544.552C2953.81 543.604 2968.1 543.141 2987.4 543.141H3007.25V588.378H2967.55C2935.02 588.378 2910.81 580.476 2894.94 564.611C2879.08 548.766 2871.12 524.663 2871.12 492.215V337.373H2815.6V294.265H2815.55V294.286ZM2996 294.286H3048.04L3132.55 541.034C3133.71 544.068 3135.5 548.05 3141.29 548.05C3147.09 548.05 3148.88 544.047 3150.02 541.034L3234.53 294.286H3283.07V305.6L3177.34 622.89C3168.26 650.049 3155.51 668.99 3139.08 679.736C3122.62 690.482 3103.51 695.854 3071.72 695.854H3017.28V650.618H3058.7C3071.93 650.618 3082.7 651.081 3091.02 652.029C3099.32 652.977 3104.63 653.441 3106.91 653.441C3113.33 653.441 3117.67 650.618 3119.97 644.971L3135.86 601.989C3137.75 597.48 3137.92 594.087 3136.43 591.791C3135.67 590.274 3134.74 589.326 3133.6 588.967C3132.46 588.588 3130.76 588.399 3128.5 588.399H3093.91L2996.04 294.307H2996V294.286ZM1243.79 526.938C1230.37 550.494 1212.97 568.129 1191.6 579.802C1170.24 591.475 1147.25 597.332 1122.68 597.332C1074.29 597.332 1040.24 578.117 1020.58 539.643C1019.06 536.651 1017.17 535.134 1014.91 535.134C1012.66 535.134 1011.5 536.272 1011.5 538.526V696.318H960.445V294.791H1011.5V345.127C1011.5 347.382 1012.64 348.519 1014.91 348.519C1017.19 348.519 1019.06 347.002 1020.58 344.01C1040.22 305.537 1074.29 286.321 1122.68 286.321C1147.25 286.321 1170.24 292.179 1191.6 303.851C1212.97 315.524 1230.35 333.159 1243.79 356.715C1257.21 380.271 1263.93 408.673 1263.93 441.837C1263.93 475.001 1257.21 503.382 1243.79 526.938ZM1184.8 360.655C1166.07 341.229 1141.39 331.516 1110.78 331.516C1080.16 331.516 1055.47 341.229 1036.76 360.655C1018.03 380.082 1011.16 407.135 1011.16 441.816C1011.16 476.497 1018.03 503.572 1036.76 522.977C1055.49 542.403 1080.16 552.116 1110.78 552.116C1141.39 552.116 1166.09 542.424 1184.8 522.977C1203.53 503.551 1212.88 476.497 1212.88 441.816C1212.88 407.135 1203.53 380.082 1184.8 360.655Z" fill="#13343B"/>
<path d="M2545.71 753.443V679.475L2527 685.571L2527.06 753.443H2545.65H2545.71Z" fill="#20808D"/>
<path d="M2576.89 683.046C2576.9 683.998 2576.9 685.576 2576.9 685.576C2597.85 675.474 2622.49 690.051 2622.49 710.73C2622.49 731.408 2622.66 753.443 2622.66 753.443H2603.61V711.409C2603.61 697.17 2576.89 696.492 2576.89 711.409V753.443H2558.12V679.475H2576.89C2576.89 679.475 2576.88 682.094 2576.89 683.046Z" fill="#20808D"/>
<path d="M2631.69 702.571C2631.68 686.08 2631.72 681.788 2631.85 681.734L2650.24 681.753V725.069C2650.24 739.07 2677.45 739.476 2677.45 725.069V681.782L2695.75 681.801L2695.75 703.543C2695.75 717.589 2695.66 725.069 2695.66 725.069C2695.66 763.07 2631.85 762.935 2631.82 725.069C2631.82 725.069 2631.69 714.05 2631.69 702.571Z" fill="#20808D"/>
<path d="M2725.1 647L2706.59 653.047L2706.59 751.749H2725.17L2725.1 647Z" fill="#20808D"/>
<path d="M2831.83 698.028H2831V717.036C2831 724.494 2840.5 732.019 2851.54 733.555V751.749C2821.92 746.325 2813.32 730.799 2812.46 717.036L2812.6 659.094L2831 653.047V680.017H2851.54V698.028H2841.72H2831.83Z" fill="#20808D"/>
<path d="M2737.03 700.742C2737.03 684.251 2737.06 679.959 2737.2 679.905L2755.59 679.924V723.24C2755.59 737.24 2782.79 737.647 2782.79 723.24V679.953L2801.1 679.972L2801.1 701.714C2801.1 715.759 2801.01 723.24 2801.01 723.24C2801.01 761.241 2737.2 761.105 2737.16 723.24C2737.16 723.24 2737.03 712.221 2737.03 700.742Z" fill="#20808D"/>
<path fill-rule="evenodd" clip-rule="evenodd" d="M2921.74 725.514C2922.56 722.511 2923 719.351 2923 716.089C2923 696.356 2907 680.359 2887.27 680.359C2867.54 680.359 2851.54 696.356 2851.54 716.089C2851.54 735.822 2867.54 751.819 2887.27 751.819C2897.25 751.819 2906.27 747.729 2912.75 741.134L2903.8 732.783L2900.56 729.896C2899.84 731.201 2898.81 732.4 2897.5 733.422C2894.8 735.52 2891.15 736.698 2887.34 736.698C2883.52 736.698 2879.87 735.52 2877.17 733.422C2874.48 731.324 2872.96 728.478 2872.96 725.512H2887.34H2901.71C2901.71 725.512 2901.71 725.513 2901.71 725.514H2921.74ZM2901.71 709.579C2901.71 706.612 2900.2 703.767 2897.5 701.669C2894.81 699.571 2891.15 698.392 2887.34 698.392C2883.53 698.392 2879.87 699.571 2877.18 701.669C2874.48 703.767 2872.97 706.612 2872.97 709.579L2887.34 709.579H2901.71Z" fill="#20808D"/>
<path d="M2369.65 755.28C2365.21 755.28 2361.2 754.427 2357.62 752.72C2354.03 751.013 2350.75 748.624 2347.76 745.552V748.88C2347.76 750.501 2347.21 751.867 2346.1 752.976C2344.99 754.085 2343.58 754.64 2341.87 754.64C2340.25 754.64 2338.89 754.085 2337.78 752.976C2336.67 751.867 2336.11 750.501 2336.11 748.88V665.808C2336.11 664.101 2336.67 662.693 2337.78 661.584C2338.89 660.475 2340.25 659.92 2341.87 659.92C2343.58 659.92 2344.99 660.475 2346.1 661.584C2347.21 662.693 2347.76 664.101 2347.76 665.808V697.168C2350.75 694.096 2354.03 691.707 2357.62 690C2361.2 688.293 2365.21 687.44 2369.65 687.44C2374.85 687.44 2379.8 688.763 2384.5 691.408C2389.19 694.053 2393.03 697.893 2396.02 702.928C2399.09 707.963 2400.62 714.107 2400.62 721.36C2400.62 728.613 2399.09 734.757 2396.02 739.792C2393.03 744.827 2389.19 748.667 2384.5 751.312C2379.8 753.957 2374.85 755.28 2369.65 755.28ZM2367.98 744.4C2374.04 744.4 2379.03 742.437 2382.96 738.512C2386.97 734.587 2388.98 728.869 2388.98 721.36C2388.98 713.765 2386.97 708.048 2382.96 704.208C2379.03 700.283 2374.04 698.32 2367.98 698.32C2363.8 698.32 2360.01 699.259 2356.59 701.136C2353.18 702.928 2350.23 705.189 2347.76 707.92V734.8C2350.23 737.531 2353.18 739.835 2356.59 741.712C2360.01 743.504 2363.8 744.4 2367.98 744.4ZM2430.58 784.08C2429.04 784.08 2427.72 783.525 2426.61 782.416C2425.59 781.307 2425.08 779.984 2425.08 778.448C2425.08 777.68 2425.2 776.997 2425.46 776.4L2433.78 755.024L2409.72 696.4C2409.63 696.059 2409.5 695.675 2409.33 695.248C2409.25 694.821 2409.2 694.395 2409.2 693.968C2409.2 692.347 2409.76 690.981 2410.87 689.872C2411.98 688.677 2413.34 688.08 2414.96 688.08C2416.16 688.08 2417.22 688.421 2418.16 689.104C2419.19 689.787 2419.91 690.64 2420.34 691.664L2440.05 740.56L2460.15 691.92C2460.66 690.725 2461.34 689.787 2462.2 689.104C2463.13 688.421 2464.24 688.08 2465.52 688.08C2467.14 688.08 2468.51 688.677 2469.62 689.872C2470.73 690.981 2471.28 692.347 2471.28 693.968C2471.28 694.736 2471.16 695.461 2470.9 696.144L2435.96 780.112C2435.44 781.221 2434.76 782.16 2433.91 782.928C2433.05 783.696 2431.94 784.08 2430.58 784.08Z" fill="#13343B"/>
</svg>
