<svg width="512" height="512" viewBox="0 0 512 512" fill="none" xmlns="http://www.w3.org/2000/svg">
<g clip-path="url(#clip0_503_71)">
<path d="M255.573 300.08C261.825 300.08 267.059 294.844 267.059 288.735V140.671L266.187 118.853L275.928 129.18L298.029 152.597C300.065 154.925 303.118 156.088 305.881 156.088C311.988 156.088 316.495 151.87 316.495 145.907C316.495 142.853 315.186 140.525 313.006 138.344L264.005 90.783C260.952 87.8725 258.48 87 255.573 87C252.519 87 250.047 87.8725 247.139 90.783L197.994 138.344C195.813 140.525 194.504 142.853 194.504 145.907C194.504 151.87 198.866 156.088 204.973 156.088C207.736 156.088 210.934 154.925 212.97 152.597L235.071 129.18L244.813 118.853L243.94 140.671V288.735C243.94 294.844 249.32 300.08 255.573 300.08ZM129.656 424H381.344C411.733 424 427 408.874 427 378.912V292.807C427 279.717 425.255 273.173 418.713 265.173L372.766 208.594C354.735 186.631 348.193 181.541 322.456 181.541H293.812V201.904H324.056C334.67 201.904 341.359 203.94 349.938 214.412L397.192 273.754C403.154 281.172 400.971 284.081 392.976 284.081H300.356C292.94 284.081 289.305 289.753 289.305 295.862V296.298C289.305 313.17 276.073 331.06 255.427 331.06C234.925 331.06 221.694 313.17 221.694 296.298V295.862C221.694 289.753 218.059 284.081 210.644 284.081H118.169C109.881 284.081 108.282 280.736 113.807 273.754L160.771 214.848C169.641 204.085 176.329 201.904 186.944 201.904H217.332V181.541H188.543C162.807 181.541 156.409 186.486 137.943 209.03L92.2876 265.173C85.8903 273.027 84 279.717 84 292.807V378.912C84 409.019 99.4126 424 129.656 424ZM130.092 400.583C115.552 400.583 107.409 392.875 107.409 377.748V305.316H199.593C203.228 332.514 225.911 352.586 255.427 352.586C284.943 352.586 307.771 332.369 311.26 305.316H403.588V377.748C403.588 392.875 395.301 400.583 380.907 400.583H130.092Z" fill="white"/>
</g>
<defs>
<clipPath id="clip0_503_71">
<rect width="512" height="512" fill="white"/>
</clipPath>
</defs>
</svg>
