<svg width="512" height="512" viewBox="0 0 512 512" fill="none" xmlns="http://www.w3.org/2000/svg">
<g clip-path="url(#clip0_547_2)">
<path d="M66 199.972L173.825 313.003L200.507 285.028L138.294 219.814H330.277C352.012 219.814 371.777 229.099 386.047 244.11C393.402 251.789 399.239 260.916 403.223 270.967C407.206 281.019 409.258 291.798 409.26 302.684C409.2 324.643 400.86 345.684 386.06 361.212C371.261 376.739 351.206 385.49 330.277 385.553H223.626V425H328.268C392.452 425 445 369.926 445 302.584C444.998 286.528 441.967 270.632 436.08 255.811C430.193 240.991 421.567 227.54 410.701 216.235C399.886 204.858 387.038 195.832 372.892 189.674C358.747 183.516 343.583 180.346 328.268 180.348H138.294L200.507 115.034L173.825 87L66 199.972Z" fill="white"/>
</g>
<defs>
<clipPath id="clip0_547_2">
<rect width="512" height="512" fill="white"/>
</clipPath>
</defs>
</svg>
