<svg width="3393" height="906" viewBox="0 0 3393 906" fill="none" xmlns="http://www.w3.org/2000/svg">
<path d="M2538.71 738.443V664.475L2520 670.571L2520.06 738.443H2538.65H2538.71Z" fill="#1E4D53"/>
<path d="M2569.89 668.046C2569.9 668.998 2569.9 670.576 2569.9 670.576C2590.85 660.474 2615.49 675.051 2615.49 695.73C2615.49 716.408 2615.66 738.443 2615.66 738.443H2596.61V696.409C2596.61 682.17 2569.89 681.492 2569.89 696.409V738.443H2551.12V664.475H2569.89C2569.89 664.475 2569.88 667.094 2569.89 668.046Z" fill="#1E4D53"/>
<path d="M2624.69 687.571C2624.68 671.08 2624.72 666.788 2624.85 666.734L2643.24 666.753V710.069C2643.24 724.07 2670.45 724.476 2670.45 710.069V666.782L2688.75 666.801L2688.75 688.543C2688.75 702.589 2688.66 710.069 2688.66 710.069C2688.66 748.07 2624.85 747.935 2624.82 710.069C2624.82 710.069 2624.69 699.05 2624.69 687.571Z" fill="#1E4D53"/>
<path d="M2718.1 632L2699.59 638.047L2699.59 736.749H2718.17L2718.1 632Z" fill="#1E4D53"/>
<path d="M2824.83 683.028H2824V702.036C2824 709.494 2833.5 717.019 2844.54 718.555V736.749C2814.92 731.325 2806.32 715.799 2805.46 702.036L2805.6 644.094L2824 638.047V665.017H2844.54V683.028H2834.72H2824.83Z" fill="#1E4D53"/>
<path d="M2730.03 685.742C2730.03 669.251 2730.06 664.959 2730.2 664.905L2748.59 664.924V708.24C2748.59 722.24 2775.79 722.647 2775.79 708.24V664.953L2794.1 664.972L2794.1 686.714C2794.1 700.759 2794.01 708.24 2794.01 708.24C2794.01 746.241 2730.2 746.105 2730.16 708.24C2730.16 708.24 2730.03 697.221 2730.03 685.742Z" fill="#1E4D53"/>
<path d="M2880.27 665.359C2900 665.359 2916 681.356 2916 701.089C2916 704.351 2915.56 707.511 2914.74 710.514H2894.71V710.512H2865.96C2865.96 713.479 2867.48 716.324 2870.17 718.422C2872.87 720.52 2876.52 721.698 2880.34 721.698C2884.15 721.698 2887.8 720.52 2890.5 718.422C2891.81 717.4 2892.84 716.2 2893.56 714.896L2896.81 717.795L2905.75 726.131C2899.27 732.726 2890.25 736.819 2880.27 736.819C2860.54 736.819 2844.54 720.822 2844.54 701.089C2844.54 681.356 2860.54 665.36 2880.27 665.359ZM2880.34 683.392C2876.53 683.392 2872.87 684.571 2870.18 686.669C2867.48 688.767 2865.97 691.612 2865.97 694.579H2894.71C2894.71 691.612 2893.2 688.767 2890.5 686.669C2887.81 684.571 2884.15 683.392 2880.34 683.392Z" fill="#1E4D53"/>
<path d="M2362.65 740.28C2358.21 740.28 2354.2 739.427 2350.62 737.72C2347.03 736.013 2343.75 733.624 2340.76 730.552V733.88C2340.76 735.501 2340.21 736.867 2339.1 737.976C2337.99 739.085 2336.58 739.64 2334.87 739.64C2333.25 739.64 2331.89 739.085 2330.78 737.976C2329.67 736.867 2329.11 735.501 2329.11 733.88V650.808C2329.11 649.101 2329.67 647.693 2330.78 646.584C2331.89 645.475 2333.25 644.92 2334.87 644.92C2336.58 644.92 2337.99 645.475 2339.1 646.584C2340.21 647.693 2340.76 649.101 2340.76 650.808V682.168C2343.75 679.096 2347.03 676.707 2350.62 675C2354.2 673.293 2358.21 672.44 2362.65 672.44C2367.85 672.44 2372.8 673.763 2377.5 676.408C2382.19 679.053 2386.03 682.893 2389.02 687.928C2392.09 692.963 2393.62 699.107 2393.62 706.36C2393.62 713.613 2392.09 719.757 2389.02 724.792C2386.03 729.827 2382.19 733.667 2377.5 736.312C2372.8 738.957 2367.85 740.28 2362.65 740.28ZM2360.98 729.4C2367.04 729.4 2372.03 727.437 2375.96 723.512C2379.97 719.587 2381.98 713.869 2381.98 706.36C2381.98 698.765 2379.97 693.048 2375.96 689.208C2372.03 685.283 2367.04 683.32 2360.98 683.32C2356.8 683.32 2353.01 684.259 2349.59 686.136C2346.18 687.928 2343.23 690.189 2340.76 692.92V719.8C2343.23 722.531 2346.18 724.835 2349.59 726.712C2353.01 728.504 2356.8 729.4 2360.98 729.4ZM2423.58 769.08C2422.04 769.08 2420.72 768.525 2419.61 767.416C2418.59 766.307 2418.08 764.984 2418.08 763.448C2418.08 762.68 2418.2 761.997 2418.46 761.4L2426.78 740.024L2402.72 681.4C2402.63 681.059 2402.5 680.675 2402.33 680.248C2402.25 679.821 2402.2 679.395 2402.2 678.968C2402.2 677.347 2402.76 675.981 2403.87 674.872C2404.98 673.677 2406.34 673.08 2407.96 673.08C2409.16 673.08 2410.22 673.421 2411.16 674.104C2412.19 674.787 2412.91 675.64 2413.34 676.664L2433.05 725.56L2453.15 676.92C2453.66 675.725 2454.34 674.787 2455.2 674.104C2456.13 673.421 2457.24 673.08 2458.52 673.08C2460.14 673.08 2461.51 673.677 2462.62 674.872C2463.73 675.981 2464.28 677.347 2464.28 678.968C2464.28 679.736 2464.16 680.461 2463.9 681.144L2428.96 765.112C2428.44 766.221 2427.76 767.16 2426.91 767.928C2426.05 768.696 2424.94 769.08 2423.58 769.08Z" fill="white"/>
<path d="M537 76L548.424 361.413C548.502 363.36 551.219 363.75 551.842 361.905L643.213 91.2711L573.764 368.341C573.29 370.231 575.787 371.371 576.905 369.776L740.822 135.847L596.126 382.128C595.139 383.808 597.214 385.606 598.736 384.39L821.918 206.118L613.698 401.657C612.278 402.99 613.762 405.3 615.565 404.562L879.931 296.389L625.056 425.345C623.318 426.224 624.091 428.858 626.029 428.658L910.163 399.347L629.28 451.273C627.365 451.627 627.365 454.373 629.28 454.727L910.163 506.653L626.029 477.342C624.091 477.142 623.318 479.776 625.056 480.655L879.931 609.611L615.565 501.438C613.762 500.7 612.278 503.01 613.698 504.343L821.918 699.883L598.736 521.61C597.214 520.394 595.139 522.192 596.126 523.872L740.822 770.153L576.905 536.224C575.787 534.628 573.29 535.769 573.764 537.659L643.213 814.729L551.842 544.095C551.219 542.25 548.502 542.64 548.424 544.587L537 830L525.576 544.587C525.498 542.64 522.781 542.25 522.158 544.095L430.787 814.729L500.236 537.659C500.71 535.769 498.213 534.628 497.095 536.224L333.178 770.153L477.874 523.872C478.861 522.192 476.786 520.394 475.264 521.61L252.082 699.883L460.302 504.343C461.722 503.01 460.238 500.7 458.435 501.438L194.069 609.611L448.944 480.655C450.682 479.776 449.909 477.142 447.971 477.342L163.837 506.653L444.72 454.727C446.635 454.373 446.635 451.627 444.72 451.273L163.837 399.347L447.971 428.658C449.909 428.858 450.682 426.224 448.944 425.345L194.069 296.389L458.435 404.562C460.238 405.3 461.722 402.99 460.302 401.657L252.082 206.118L475.264 384.39C476.786 385.606 478.861 383.808 477.874 382.128L333.178 135.847L497.095 369.776C498.213 371.372 500.71 370.231 500.236 368.341L430.787 91.2711L522.158 361.905C522.781 363.75 525.498 363.36 525.576 361.413L537 76Z" fill="#1E4D53"/>
<path d="M1154.96 574.51C1132.41 574.51 1112.12 572.405 1094.08 568.196C1076.34 563.686 1060.86 558.575 1047.63 552.863C1044.32 551.359 1041.31 548.954 1038.61 545.647C1036.2 542.039 1035 538.281 1035 534.372C1035 529.261 1036.65 524.901 1039.96 521.294C1043.27 517.385 1047.78 515.431 1053.49 515.431C1056.5 515.431 1059.35 516.032 1062.06 517.235C1072.28 521.745 1084.76 525.954 1099.49 529.862C1114.52 533.771 1131.66 535.725 1150.9 535.725C1165.94 535.725 1179.32 534.222 1191.04 531.215C1203.07 527.908 1212.54 522.496 1219.45 514.98C1226.37 507.163 1229.83 496.79 1229.83 483.862C1229.83 474.241 1226.37 466.574 1219.45 460.862C1212.54 454.848 1203.37 449.888 1191.94 445.979C1180.52 442.07 1167.89 438.463 1154.06 435.155C1140.53 431.848 1127 428.24 1113.47 424.332C1099.94 420.123 1087.46 414.711 1076.04 408.096C1064.61 401.482 1055.44 393.063 1048.53 382.841C1041.61 372.318 1038.16 359.089 1038.16 343.154C1038.16 326.318 1042.52 310.984 1051.24 297.154C1060.26 283.023 1073.48 271.748 1090.92 263.33C1108.36 254.912 1129.71 250.702 1154.96 250.702C1172.7 250.702 1189.09 252.055 1204.12 254.761C1219.15 257.467 1232.68 261.075 1244.71 265.585C1248.02 266.788 1250.87 268.742 1253.28 271.448C1255.98 274.154 1257.34 278.212 1257.34 283.624C1257.34 288.134 1255.68 292.494 1252.38 296.703C1249.37 300.611 1245.01 302.566 1239.3 302.566C1238.09 302.566 1236.89 302.415 1235.69 302.115C1234.49 301.513 1233.28 301.062 1232.08 300.762C1221.86 297.154 1210.58 294.298 1198.26 292.193C1186.23 289.788 1173.3 288.585 1159.47 288.585C1136.62 288.585 1117.53 292.945 1102.2 301.664C1086.86 310.383 1079.2 323.161 1079.2 339.997C1079.2 351.122 1082.65 359.991 1089.57 366.606C1096.48 373.22 1105.65 378.482 1117.08 382.39C1128.5 386.299 1140.98 389.907 1154.51 393.214C1168.04 396.22 1181.57 399.678 1195.1 403.586C1208.63 407.495 1221.11 412.756 1232.53 419.371C1243.96 425.685 1253.13 434.253 1260.04 445.077C1266.96 455.6 1270.41 469.43 1270.41 486.568C1270.41 503.404 1265.6 518.588 1255.98 532.117C1246.66 545.346 1233.28 555.719 1215.85 563.235C1198.71 570.752 1178.41 574.51 1154.96 574.51ZM1340.96 293.095C1334.64 293.095 1329.23 290.84 1324.72 286.33C1320.21 281.82 1317.96 276.409 1317.96 270.095V268.291C1317.96 261.977 1320.21 256.565 1324.72 252.055C1329.23 247.545 1334.64 245.291 1340.96 245.291H1343.66C1349.98 245.291 1355.39 247.545 1359.9 252.055C1364.41 256.565 1366.66 261.977 1366.66 268.291V270.095C1366.66 276.409 1364.41 281.82 1359.9 286.33C1355.39 290.84 1349.98 293.095 1343.66 293.095H1340.96ZM1341.86 572.255C1336.15 572.255 1331.34 570.301 1327.43 566.392C1323.52 562.484 1321.57 557.673 1321.57 551.961V358.488C1321.57 352.475 1323.52 347.514 1327.43 343.605C1331.34 339.697 1336.15 337.743 1341.86 337.743C1347.87 337.743 1352.83 339.697 1356.74 343.605C1360.65 347.514 1362.61 352.475 1362.61 358.488V551.961C1362.61 557.673 1360.65 562.484 1356.74 566.392C1352.83 570.301 1347.87 572.255 1341.86 572.255ZM1454.17 572.255C1448.45 572.255 1443.64 570.301 1439.73 566.392C1435.83 562.484 1433.87 557.673 1433.87 551.961V358.488C1433.87 352.775 1435.83 347.965 1439.73 344.056C1443.64 339.847 1448.45 337.743 1454.17 337.743C1459.88 337.743 1464.69 339.847 1468.6 344.056C1472.81 347.965 1474.91 352.775 1474.91 358.488V376.978C1479.12 370.965 1484.38 364.802 1490.7 358.488C1497.31 352.174 1505.58 346.762 1515.5 342.252C1525.42 337.743 1537.45 335.488 1551.58 335.488C1569.62 335.488 1584.35 340.298 1595.78 349.919C1607.5 359.54 1615.77 370.213 1620.58 381.939C1624.19 376.227 1629.3 369.762 1635.91 362.547C1642.53 355.331 1651.25 349.017 1662.07 343.605C1673.2 338.194 1687.03 335.488 1703.56 335.488C1721.3 335.488 1735.73 339.997 1746.86 349.017C1757.98 357.736 1766.1 368.71 1771.21 381.939C1776.32 395.168 1778.88 408.547 1778.88 422.077V551.961C1778.88 557.673 1776.77 562.484 1772.56 566.392C1768.65 570.301 1763.84 572.255 1758.13 572.255C1752.42 572.255 1747.61 570.301 1743.7 566.392C1739.79 562.484 1737.84 557.673 1737.84 551.961V430.195C1737.84 411.253 1734.38 397.122 1727.46 387.802C1720.85 378.181 1708.97 373.37 1691.84 373.37C1680.41 373.37 1670.64 375.625 1662.52 380.135C1654.4 384.344 1647.49 389.756 1641.78 396.371C1636.06 402.985 1631.1 409.75 1626.89 416.665V551.961C1626.89 557.673 1624.79 562.484 1620.58 566.392C1616.67 570.301 1611.86 572.255 1606.15 572.255C1600.44 572.255 1595.63 570.301 1591.72 566.392C1587.81 562.484 1585.85 557.673 1585.85 551.961V430.195C1585.85 411.253 1582.4 397.122 1575.48 387.802C1568.87 378.181 1556.99 373.37 1539.85 373.37C1528.43 373.37 1518.66 375.625 1510.54 380.135C1502.42 384.344 1495.51 389.756 1489.79 396.371C1484.08 402.985 1479.12 409.75 1474.91 416.665V551.961C1474.91 557.673 1472.81 562.484 1468.6 566.392C1464.69 570.301 1459.88 572.255 1454.17 572.255ZM1868.16 675.982C1862.44 675.982 1857.63 673.877 1853.73 669.668C1849.82 665.759 1847.86 660.949 1847.86 655.236V358.037C1847.86 352.324 1849.82 347.514 1853.73 343.605C1857.63 339.697 1862.44 337.743 1868.16 337.743C1874.17 337.743 1879.13 339.697 1883.04 343.605C1886.95 347.514 1888.9 352.324 1888.9 358.037V369.762C1899.43 358.939 1911 350.52 1923.63 344.507C1936.26 338.494 1950.39 335.488 1966.02 335.488C1984.36 335.488 2001.8 340.148 2018.34 349.468C2034.87 358.789 2048.4 372.318 2058.92 390.057C2069.75 407.796 2075.16 429.443 2075.16 454.999C2075.16 480.555 2069.75 502.202 2058.92 519.941C2048.4 537.679 2034.87 551.209 2018.34 560.529C2001.8 569.85 1984.36 574.51 1966.02 574.51C1950.39 574.51 1936.26 571.503 1923.63 565.49C1911 559.477 1899.43 551.059 1888.9 540.235V655.236C1888.9 660.949 1886.95 665.759 1883.04 669.668C1879.13 673.877 1874.17 675.982 1868.16 675.982ZM1960.16 536.176C1981.5 536.176 1999.09 529.261 2012.92 515.431C2027.05 501.601 2034.12 481.457 2034.12 454.999C2034.12 428.24 2027.05 408.096 2012.92 394.567C1999.09 380.736 1981.5 373.821 1960.16 373.821C1945.43 373.821 1932.05 377.129 1920.02 383.743C1907.99 390.057 1897.62 398.024 1888.9 407.645V502.352C1897.62 511.973 1907.99 520.091 1920.02 526.705C1932.05 533.019 1945.43 536.176 1960.16 536.176ZM2152.67 572.255C2146.95 572.255 2142.14 570.301 2138.23 566.392C2134.33 562.484 2132.37 557.673 2132.37 551.961V259.271C2132.37 253.258 2134.33 248.297 2138.23 244.389C2142.14 240.48 2146.95 238.526 2152.67 238.526C2158.68 238.526 2163.64 240.48 2167.55 244.389C2171.46 248.297 2173.41 253.258 2173.41 259.271V551.961C2173.41 557.673 2171.46 562.484 2167.55 566.392C2163.64 570.301 2158.68 572.255 2152.67 572.255ZM2347.5 574.51C2310.82 574.51 2282.11 564.137 2261.36 543.392C2240.92 522.346 2230.7 492.881 2230.7 454.999C2230.7 434.554 2234.45 415.312 2241.97 397.273C2249.49 378.933 2261.21 364.05 2277.15 352.625C2293.08 341.2 2313.53 335.488 2338.48 335.488C2361.63 335.488 2381.18 340.899 2397.11 351.723C2413.04 362.246 2425.07 376.076 2433.19 393.214C2441.61 410.351 2445.82 428.992 2445.82 449.136C2445.82 454.848 2443.86 459.659 2439.95 463.567C2436.35 467.476 2431.38 469.43 2425.07 469.43H2272.19C2274.59 489.574 2282.26 505.81 2295.19 518.137C2308.12 530.163 2326.76 536.176 2351.11 536.176C2364.64 536.176 2376.06 534.973 2385.38 532.568C2394.7 529.862 2403.57 526.405 2411.99 522.196C2414.4 520.993 2417.1 520.392 2420.11 520.392C2424.92 520.392 2429.13 522.045 2432.74 525.352C2436.35 528.66 2438.15 532.869 2438.15 537.98C2438.15 541.588 2436.95 544.895 2434.54 547.902C2432.44 550.608 2429.73 552.863 2426.42 554.666C2416.5 560.379 2405.68 565.189 2393.95 569.098C2382.53 572.706 2367.04 574.51 2347.5 574.51ZM2272.19 436.057H2405.23C2404.33 420.423 2400.27 407.796 2393.05 398.175C2386.14 388.554 2377.72 381.488 2367.8 376.978C2357.87 372.468 2348.1 370.213 2338.48 370.213C2328.86 370.213 2319.09 372.468 2309.17 376.978C2299.25 381.488 2290.83 388.554 2283.91 398.175C2277 407.796 2273.09 420.423 2272.19 436.057ZM2504.24 572.255C2498.53 572.255 2493.87 570.451 2490.26 566.843C2486.65 562.935 2484.85 557.823 2484.85 551.51C2484.85 547 2486.35 542.791 2489.36 538.882L2559.26 456.352L2489.36 371.115C2486.05 366.906 2484.4 362.547 2484.4 358.037C2484.4 351.723 2486.35 346.762 2490.26 343.154C2494.17 339.546 2498.98 337.743 2504.69 337.743C2511.91 337.743 2517.32 340.298 2520.93 345.409L2584.06 423.43L2646.75 345.409C2650.36 340.298 2655.62 337.743 2662.54 337.743C2668.55 337.743 2673.51 339.697 2677.42 343.605C2681.33 347.213 2683.28 351.723 2683.28 357.135C2683.28 361.645 2681.78 365.854 2678.77 369.762L2607.52 453.646L2677.87 538.431C2679.67 540.536 2680.88 542.791 2681.48 545.196C2682.38 547.601 2682.83 549.706 2682.83 551.51C2682.83 556.621 2681.03 561.431 2677.42 565.941C2674.11 570.15 2669 572.255 2662.08 572.255C2655.47 572.255 2650.21 569.549 2646.3 564.137L2582.26 487.47L2521.83 563.235C2517.32 569.248 2511.46 572.255 2504.24 572.255ZM2760.86 293.095C2754.54 293.095 2749.13 290.84 2744.62 286.33C2740.11 281.82 2737.86 276.409 2737.86 270.095V268.291C2737.86 261.977 2740.11 256.565 2744.62 252.055C2749.13 247.545 2754.54 245.291 2760.86 245.291H2763.56C2769.88 245.291 2775.29 247.545 2779.8 252.055C2784.31 256.565 2786.56 261.977 2786.56 268.291V270.095C2786.56 276.409 2784.31 281.82 2779.8 286.33C2775.29 290.84 2769.88 293.095 2763.56 293.095H2760.86ZM2761.76 572.255C2756.05 572.255 2751.24 570.301 2747.33 566.392C2743.42 562.484 2741.47 557.673 2741.47 551.961V358.488C2741.47 352.475 2743.42 347.514 2747.33 343.605C2751.24 339.697 2756.05 337.743 2761.76 337.743C2767.77 337.743 2772.73 339.697 2776.64 343.605C2780.55 347.514 2782.51 352.475 2782.51 358.488V551.961C2782.51 557.673 2780.55 562.484 2776.64 566.392C2772.73 570.301 2767.77 572.255 2761.76 572.255ZM2933.14 574.51C2927.73 574.51 2921.27 573.909 2913.75 572.706C2906.54 571.804 2899.32 569.549 2892.11 565.941C2885.19 562.033 2879.33 556.019 2874.52 547.902C2869.71 539.784 2867.3 528.81 2867.3 514.98V375.174H2835.28C2829.57 375.174 2826.71 372.318 2826.71 366.606C2826.71 363.599 2828.07 361.043 2830.77 358.939L2892.11 298.958C2892.71 298.356 2893.61 297.605 2894.81 296.703C2896.31 295.5 2897.97 294.899 2899.77 294.899C2902.18 294.899 2904.13 295.801 2905.63 297.605C2907.44 299.409 2908.34 301.513 2908.34 303.919V339.997H2959.3C2964.41 339.997 2968.62 341.651 2971.93 344.958C2975.24 348.266 2976.89 352.475 2976.89 357.586C2976.89 362.396 2975.24 366.606 2971.93 370.213C2968.62 373.521 2964.41 375.174 2959.3 375.174H2908.34V511.372C2908.34 520.091 2909.99 526.405 2913.3 530.313C2916.61 534.222 2920.52 536.627 2925.03 537.529C2929.84 538.13 2934.05 538.431 2937.65 538.431C2944.87 538.431 2950.13 537.83 2953.44 536.627C2957.05 535.124 2960.81 534.372 2964.71 534.372C2968.92 534.372 2972.68 535.875 2975.99 538.882C2979.3 541.889 2980.95 545.797 2980.95 550.608C2980.95 557.523 2977.49 562.784 2970.58 566.392C2965.16 568.797 2959.3 570.752 2952.99 572.255C2946.97 573.758 2940.36 574.51 2933.14 574.51ZM3075.18 675.982C3069.77 675.982 3065.11 674.027 3061.2 670.119C3057.6 666.21 3055.79 661.55 3055.79 656.138C3055.79 653.432 3056.24 651.027 3057.14 648.922L3086.46 573.608L3001.67 367.057C3001.37 365.854 3000.92 364.501 3000.32 362.998C3000.02 361.494 2999.87 359.991 2999.87 358.488C2999.87 352.775 3001.82 347.965 3005.73 344.056C3009.64 339.847 3014.45 337.743 3020.16 337.743C3024.37 337.743 3028.13 338.945 3031.44 341.35C3035.05 343.756 3037.6 346.762 3039.11 350.37L3108.56 522.647L3179.36 351.272C3181.17 347.063 3183.57 343.756 3186.58 341.35C3189.88 338.945 3193.79 337.743 3198.3 337.743C3204.02 337.743 3208.83 339.847 3212.73 344.056C3216.64 347.965 3218.6 352.775 3218.6 358.488C3218.6 361.194 3218.15 363.749 3217.24 366.155L3094.13 662.001C3092.32 665.91 3089.92 669.217 3086.91 671.923C3083.9 674.629 3079.99 675.982 3075.18 675.982Z" fill="white"/>
</svg>
