<svg width="512" height="512" viewBox="0 0 512 512" fill="none" xmlns="http://www.w3.org/2000/svg">
<g clip-path="url(#clip0_503_74)">
<path d="M256.074 275.573C259.041 275.573 261.563 274.536 264.679 271.57L314.679 223.23C316.904 221.006 318.239 218.633 318.239 215.371C318.239 209.44 313.64 204.992 307.409 204.992C304.59 204.992 301.474 206.178 299.397 208.551L276.845 232.572L266.905 242.952L267.795 220.858V103.567C267.795 97.3391 262.454 92 256.074 92C249.694 92 244.204 97.3391 244.204 103.567V220.858L245.095 243.1L235.154 232.572L212.602 208.551C210.525 206.178 207.261 204.992 204.442 204.992C198.21 204.992 193.759 209.44 193.759 215.371C193.759 218.633 195.094 221.006 197.32 223.23L247.469 271.57C250.436 274.536 252.958 275.573 256.074 275.573ZM127.588 420H384.412C415.421 420 431 404.579 431 374.032V286.25C431 272.904 429.071 266.232 422.544 258.076L371.207 194.76C353.848 173.408 343.166 160.952 316.904 160.952H295.094V181.712H318.536C329.367 181.712 340.643 191.35 348.062 200.543L400.584 266.825C406.518 274.387 404.44 277.353 396.281 277.353H301.771C294.204 277.353 290.495 283.136 290.495 289.364V289.808C290.495 307.009 276.993 325.248 255.925 325.248C235.005 325.248 221.504 307.009 221.504 289.808V289.364C221.504 283.136 217.795 277.353 210.228 277.353H115.866C107.41 277.353 105.778 273.942 111.415 266.825L163.938 200.543C171.356 191.35 182.632 181.712 193.462 181.712H217.053V160.952H195.094C168.834 160.952 158.151 173.408 140.792 194.76L89.4567 258.076C82.9289 266.232 81 272.904 81 286.25V374.032C81 404.727 96.7271 420 127.588 420ZM128.033 396.126C113.196 396.126 104.887 388.267 104.887 372.846V299.002H198.952C202.661 326.73 225.807 347.193 255.925 347.193C286.044 347.193 309.338 326.582 312.898 299.002H407.111V372.846C407.111 388.267 398.654 396.126 383.966 396.126H128.033Z" fill="white"/>
</g>
<defs>
<clipPath id="clip0_503_74">
<rect width="512" height="512" fill="white"/>
</clipPath>
</defs>
</svg>
