<svg width="150" height="36" viewBox="0 0 150 36" fill="none" xmlns="http://www.w3.org/2000/svg">
<path d="M24.8477 5.08172L17.5008 12.4356H24.8477V5.08172ZM24.8477 5.08172V7.09506M17.4838 4V31.8556M24.8477 19.7879L17.5008 12.434M24.8477 19.7879V30.3305L17.5008 22.9766M24.8477 19.7879L17.5 12.434M24.8477 19.7879L24.8469 22.934H28V12.434H17.5M17.5008 12.434V22.9766M17.5008 12.434L10.1531 19.7879M17.5008 22.9766L10.1531 30.3305V19.7879M10.1531 19.7879L10.1523 22.934H7V12.434H17.5M10.1531 19.7879L17.5 12.434M17.5 12.4356L10.1523 5.08172V12.4356H17.5Z" stroke="#20808D" stroke-miterlimit="10"/>
<path d="M38.488 22.13C37.6213 22.13 36.8413 21.9437 36.148 21.571C35.4633 21.1897 34.9216 20.648 34.523 19.946C34.133 19.2353 33.938 18.4077 33.938 17.463C33.938 16.5183 34.133 15.695 34.523 14.993C34.9216 14.2823 35.4633 13.7407 36.148 13.368C36.8413 12.9867 37.6213 12.796 38.488 12.796C39.0773 12.796 39.6016 12.8653 40.061 13.004C40.529 13.1427 40.9926 13.342 41.452 13.602C41.6426 13.706 41.738 13.8707 41.738 14.096C41.738 14.226 41.6903 14.343 41.595 14.447C41.4996 14.5423 41.374 14.59 41.218 14.59C41.1313 14.59 41.0533 14.5727 40.984 14.538C40.6026 14.3387 40.23 14.187 39.866 14.083C39.502 13.979 39.0816 13.927 38.605 13.927C37.8596 13.927 37.2226 14.083 36.694 14.395C36.174 14.6983 35.7796 15.1187 35.511 15.656C35.251 16.1847 35.121 16.787 35.121 17.463C35.121 18.139 35.251 18.7457 35.511 19.283C35.7796 19.8117 36.174 20.232 36.694 20.544C37.2226 20.8473 37.8596 20.999 38.605 20.999C39.0816 20.999 39.502 20.947 39.866 20.843C40.23 20.739 40.6026 20.5873 40.984 20.388C41.0533 20.3533 41.1313 20.336 41.218 20.336C41.374 20.336 41.4996 20.3837 41.595 20.479C41.6903 20.5743 41.738 20.6913 41.738 20.83C41.738 21.0553 41.6426 21.22 41.452 21.324C40.9926 21.584 40.529 21.7833 40.061 21.922C39.6016 22.0607 39.0773 22.13 38.488 22.13ZM44.264 22.065C44.0993 22.065 43.9607 22.0087 43.848 21.896C43.7353 21.7833 43.679 21.6447 43.679 21.48V13.043C43.679 12.8783 43.7353 12.7397 43.848 12.627C43.9607 12.5057 44.0993 12.445 44.264 12.445C44.4287 12.445 44.5673 12.5057 44.68 12.627C44.8013 12.7397 44.862 12.8783 44.862 13.043V16.436C45.1913 16.072 45.5467 15.7817 45.928 15.565C46.3093 15.3483 46.76 15.24 47.28 15.24C47.7567 15.24 48.1683 15.3527 48.515 15.578C48.8703 15.8033 49.139 16.111 49.321 16.501C49.5117 16.891 49.607 17.32 49.607 17.788V21.48C49.607 21.6447 49.5463 21.7833 49.425 21.896C49.3123 22.0087 49.1737 22.065 49.009 22.065C48.8443 22.065 48.7057 22.0087 48.593 21.896C48.4803 21.7833 48.424 21.6447 48.424 21.48V17.918C48.424 16.8607 47.9473 16.332 46.994 16.332C46.5607 16.332 46.1707 16.4447 45.824 16.67C45.486 16.8953 45.1653 17.1987 44.862 17.58V21.48C44.862 21.6447 44.8013 21.7833 44.68 21.896C44.5673 22.0087 44.4287 22.065 44.264 22.065ZM54.9549 22.13C53.8976 22.13 53.0699 21.831 52.4719 21.233C51.8826 20.6263 51.5879 19.777 51.5879 18.685C51.5879 18.0697 51.7006 17.502 51.9259 16.982C52.1512 16.462 52.4979 16.0417 52.9659 15.721C53.4339 15.4003 54.0102 15.24 54.6949 15.24C55.3362 15.24 55.8909 15.3917 56.3589 15.695C56.8269 15.9897 57.1822 16.3883 57.4249 16.891C57.6676 17.385 57.7889 17.9267 57.7889 18.516C57.7889 18.6807 57.7326 18.8193 57.6199 18.932C57.5159 19.0447 57.3729 19.101 57.1909 19.101H52.7839C52.8532 19.7077 53.0786 20.18 53.4599 20.518C53.8412 20.856 54.3742 21.025 55.0589 21.025C55.4229 21.025 55.7392 20.9903 56.0079 20.921C56.2852 20.8517 56.5539 20.752 56.8139 20.622C56.8832 20.5873 56.9612 20.57 57.0479 20.57C57.1866 20.57 57.3079 20.6177 57.4119 20.713C57.5159 20.8083 57.5679 20.9297 57.5679 21.077C57.5679 21.2677 57.4552 21.428 57.2299 21.558C56.8919 21.7487 56.5582 21.8917 56.2289 21.987C55.8996 22.0823 55.4749 22.13 54.9549 22.13ZM56.6189 18.139C56.5929 17.7143 56.4802 17.359 56.2809 17.073C56.0902 16.787 55.8519 16.579 55.5659 16.449C55.2799 16.3103 54.9896 16.241 54.6949 16.241C54.4002 16.241 54.1099 16.3103 53.8239 16.449C53.5379 16.579 53.2996 16.787 53.1089 17.073C52.9182 17.359 52.8099 17.7143 52.7839 18.139H56.6189ZM62.8122 22.13C62.1882 22.13 61.6118 21.9913 61.0832 21.714C60.5545 21.4367 60.1298 21.038 59.8092 20.518C59.4972 19.998 59.3412 19.387 59.3412 18.685C59.3412 17.983 59.4972 17.372 59.8092 16.852C60.1298 16.332 60.5545 15.9333 61.0832 15.656C61.6118 15.3787 62.1882 15.24 62.8122 15.24C63.2715 15.24 63.6658 15.3007 63.9952 15.422C64.3332 15.5347 64.6452 15.682 64.9312 15.864C65.1045 15.9767 65.1912 16.1283 65.1912 16.319C65.1912 16.449 65.1392 16.5703 65.0352 16.683C64.9398 16.787 64.8272 16.839 64.6972 16.839C64.6018 16.839 64.5065 16.813 64.4112 16.761C64.1252 16.6137 63.8782 16.5097 63.6702 16.449C63.4708 16.3797 63.2195 16.345 62.9162 16.345C62.1708 16.345 61.5858 16.5617 61.1612 16.995C60.7365 17.4197 60.5242 17.983 60.5242 18.685C60.5242 19.387 60.7365 19.9547 61.1612 20.388C61.5858 20.8127 62.1708 21.025 62.9162 21.025C63.2195 21.025 63.4708 20.9947 63.6702 20.934C63.8782 20.8647 64.1252 20.7563 64.4112 20.609C64.5065 20.557 64.6018 20.531 64.6972 20.531C64.8272 20.531 64.9398 20.5873 65.0352 20.7C65.1392 20.804 65.1912 20.921 65.1912 21.051C65.1912 21.2417 65.1045 21.3933 64.9312 21.506C64.6452 21.688 64.3332 21.8397 63.9952 21.961C63.6658 22.0737 63.2715 22.13 62.8122 22.13ZM67.6508 22.065C67.4861 22.065 67.3475 22.0087 67.2348 21.896C67.1221 21.7833 67.0658 21.6447 67.0658 21.48V13.043C67.0658 12.8783 67.1221 12.7397 67.2348 12.627C67.3475 12.5057 67.4861 12.445 67.6508 12.445C67.8155 12.445 67.9541 12.5057 68.0668 12.627C68.1881 12.7397 68.2488 12.8783 68.2488 13.043V18.36L71.3428 15.5C71.4728 15.3873 71.6028 15.331 71.7328 15.331C71.9321 15.331 72.0751 15.3873 72.1618 15.5C72.2571 15.6127 72.3048 15.747 72.3048 15.903C72.3048 16.0503 72.2311 16.1977 72.0838 16.345L70.2118 18.022L72.5648 21.142C72.6515 21.2547 72.6948 21.3717 72.6948 21.493C72.6948 21.6663 72.6385 21.805 72.5258 21.909C72.4131 22.013 72.2701 22.065 72.0968 22.065C72.0101 22.065 71.9235 22.0433 71.8368 22C71.7501 21.9567 71.6765 21.896 71.6158 21.818L69.3798 18.776L68.2488 19.803V21.48C68.2488 21.6447 68.1881 21.7833 68.0668 21.896C67.9541 22.0087 67.8155 22.065 67.6508 22.065ZM79.7887 25.055C79.6327 25.055 79.4984 24.9987 79.3857 24.886C79.2817 24.7733 79.2297 24.639 79.2297 24.483C79.2297 24.4137 79.2427 24.3443 79.2687 24.275L80.1137 22.104L77.6697 16.15C77.6351 16.0633 77.6177 15.981 77.6177 15.903C77.6177 15.7383 77.6741 15.5997 77.7867 15.487C77.8994 15.3657 78.0381 15.305 78.2027 15.305C78.3241 15.305 78.4324 15.3397 78.5277 15.409C78.6317 15.4783 78.7054 15.565 78.7487 15.669L80.7507 20.635L82.7917 15.695C82.9044 15.435 83.0864 15.305 83.3377 15.305C83.5024 15.305 83.6411 15.3657 83.7537 15.487C83.8664 15.5997 83.9227 15.7383 83.9227 15.903C83.9227 15.981 83.9097 16.0547 83.8837 16.124L80.3347 24.652C80.2134 24.9207 80.0314 25.055 79.7887 25.055ZM88.5153 22.13C87.848 22.13 87.263 21.987 86.7603 21.701C86.2576 21.415 85.8676 21.012 85.5903 20.492C85.3216 19.9633 85.1873 19.361 85.1873 18.685C85.1873 18.009 85.3216 17.411 85.5903 16.891C85.8676 16.3623 86.2576 15.955 86.7603 15.669C87.263 15.383 87.848 15.24 88.5153 15.24C89.174 15.24 89.7546 15.383 90.2573 15.669C90.76 15.955 91.15 16.3623 91.4273 16.891C91.7046 17.411 91.8433 18.009 91.8433 18.685C91.8433 19.361 91.7046 19.9633 91.4273 20.492C91.15 21.012 90.76 21.415 90.2573 21.701C89.7546 21.987 89.174 22.13 88.5153 22.13ZM88.5153 21.051C88.8706 21.051 89.2086 20.9687 89.5293 20.804C89.8586 20.6393 90.1273 20.3793 90.3353 20.024C90.552 19.6687 90.6603 19.218 90.6603 18.672C90.6603 18.1347 90.552 17.6883 90.3353 17.333C90.1273 16.9777 89.8586 16.722 89.5293 16.566C89.2086 16.4013 88.8706 16.319 88.5153 16.319C88.1513 16.319 87.8046 16.4013 87.4753 16.566C87.1546 16.722 86.8903 16.9777 86.6823 17.333C86.4743 17.6883 86.3703 18.1347 86.3703 18.672C86.3703 19.218 86.4743 19.6687 86.6823 20.024C86.8903 20.3793 87.1546 20.6393 87.4753 20.804C87.8046 20.9687 88.1513 21.051 88.5153 21.051ZM96.1515 22.13C95.6748 22.13 95.2588 22.0173 94.9035 21.792C94.5568 21.5667 94.2881 21.259 94.0975 20.869C93.9155 20.479 93.8245 20.05 93.8245 19.582V15.89C93.8245 15.7253 93.8808 15.5867 93.9935 15.474C94.1148 15.3613 94.2578 15.305 94.4225 15.305C94.5871 15.305 94.7258 15.3613 94.8385 15.474C94.9511 15.5867 95.0075 15.7253 95.0075 15.89V19.452C95.0075 20.5093 95.4841 21.038 96.4375 21.038C96.8708 21.038 97.2565 20.9253 97.5945 20.7C97.9411 20.4747 98.2661 20.1713 98.5695 19.79V15.89C98.5695 15.7253 98.6258 15.5867 98.7385 15.474C98.8598 15.3613 99.0028 15.305 99.1675 15.305C99.3321 15.305 99.4708 15.3613 99.5835 15.474C99.6961 15.5867 99.7525 15.7253 99.7525 15.89V21.467C99.7525 21.6317 99.6961 21.7747 99.5835 21.896C99.4708 22.0087 99.3321 22.065 99.1675 22.065C99.0028 22.065 98.8598 22.0087 98.7385 21.896C98.6258 21.7747 98.5695 21.6317 98.5695 21.467V20.934C98.2401 21.298 97.8848 21.5883 97.5035 21.805C97.1221 22.0217 96.6715 22.13 96.1515 22.13ZM102.786 22.065C102.622 22.065 102.483 22.0087 102.37 21.896C102.258 21.7833 102.201 21.6447 102.201 21.48V15.903C102.201 15.7383 102.258 15.5997 102.37 15.487C102.483 15.3657 102.622 15.305 102.786 15.305C102.951 15.305 103.09 15.3657 103.202 15.487C103.324 15.5997 103.384 15.7383 103.384 15.903V16.462C103.991 15.6473 104.671 15.24 105.425 15.24H105.49C105.655 15.24 105.789 15.2963 105.893 15.409C106.006 15.5217 106.062 15.6603 106.062 15.825C106.062 15.9897 106.006 16.124 105.893 16.228C105.781 16.332 105.638 16.384 105.464 16.384H105.399C104.983 16.384 104.602 16.488 104.255 16.696C103.909 16.8953 103.618 17.1727 103.384 17.528V21.48C103.384 21.6447 103.324 21.7833 103.202 21.896C103.09 22.0087 102.951 22.065 102.786 22.065ZM112.154 22C111.989 22 111.851 21.9437 111.738 21.831C111.625 21.7183 111.569 21.5797 111.569 21.415V13.524C111.569 13.3593 111.625 13.2207 111.738 13.108C111.851 12.9867 111.989 12.926 112.154 12.926H117.367C117.523 12.926 117.653 12.9823 117.757 13.095C117.87 13.199 117.926 13.329 117.926 13.485C117.926 13.641 117.87 13.771 117.757 13.875C117.653 13.979 117.523 14.031 117.367 14.031H112.752V16.904H116.899C117.055 16.904 117.185 16.9603 117.289 17.073C117.402 17.177 117.458 17.307 117.458 17.463C117.458 17.619 117.402 17.749 117.289 17.853C117.185 17.957 117.055 18.009 116.899 18.009H112.752V20.895H117.367C117.523 20.895 117.653 20.9513 117.757 21.064C117.87 21.168 117.926 21.298 117.926 21.454C117.926 21.61 117.87 21.74 117.757 21.844C117.653 21.948 117.523 22 117.367 22H112.154ZM120.511 22.065C120.346 22.065 120.208 22.0087 120.095 21.896C119.982 21.7833 119.926 21.6447 119.926 21.48V15.903C119.926 15.7383 119.982 15.5997 120.095 15.487C120.208 15.3657 120.346 15.305 120.511 15.305C120.676 15.305 120.814 15.3657 120.927 15.487C121.048 15.5997 121.109 15.7383 121.109 15.903V16.436C121.352 16.0893 121.642 15.8033 121.98 15.578C122.327 15.3527 122.773 15.24 123.319 15.24C123.804 15.24 124.22 15.37 124.567 15.63C124.914 15.89 125.161 16.2063 125.308 16.579C125.845 15.6863 126.643 15.24 127.7 15.24C128.185 15.24 128.588 15.3613 128.909 15.604C129.238 15.8467 129.481 16.1587 129.637 16.54C129.793 16.9213 129.871 17.32 129.871 17.736V21.48C129.871 21.6447 129.81 21.7833 129.689 21.896C129.576 22.0087 129.438 22.065 129.273 22.065C129.108 22.065 128.97 22.0087 128.857 21.896C128.744 21.7833 128.688 21.6447 128.688 21.48V17.97C128.688 17.4067 128.588 16.995 128.389 16.735C128.19 16.4663 127.847 16.332 127.362 16.332C126.92 16.332 126.552 16.449 126.257 16.683C125.971 16.9083 125.715 17.2073 125.49 17.58V21.48C125.49 21.6447 125.429 21.7833 125.308 21.896C125.195 22.0087 125.057 22.065 124.892 22.065C124.727 22.065 124.589 22.0087 124.476 21.896C124.363 21.7833 124.307 21.6447 124.307 21.48V17.97C124.307 17.4067 124.207 16.995 124.008 16.735C123.809 16.4663 123.466 16.332 122.981 16.332C122.539 16.332 122.171 16.449 121.876 16.683C121.59 16.9083 121.334 17.2073 121.109 17.58V21.48C121.109 21.6447 121.048 21.7833 120.927 21.896C120.814 22.0087 120.676 22.065 120.511 22.065ZM133.94 22.13C133.558 22.13 133.203 22.052 132.874 21.896C132.553 21.74 132.297 21.5147 132.107 21.22C131.916 20.9167 131.821 20.57 131.821 20.18C131.821 19.5387 132.072 19.0273 132.575 18.646C133.086 18.2647 133.831 18.074 134.811 18.074H136.384V17.97C136.384 17.398 136.241 16.9863 135.955 16.735C135.677 16.4837 135.24 16.358 134.642 16.358C134.312 16.358 134.018 16.384 133.758 16.436C133.506 16.488 133.225 16.566 132.913 16.67C132.843 16.6873 132.787 16.696 132.744 16.696C132.614 16.696 132.501 16.6483 132.406 16.553C132.31 16.4577 132.263 16.3407 132.263 16.202C132.263 15.968 132.375 15.8033 132.601 15.708C133.337 15.396 134.087 15.24 134.85 15.24C135.448 15.24 135.95 15.3613 136.358 15.604C136.774 15.8467 137.077 16.163 137.268 16.553C137.467 16.9343 137.567 17.3503 137.567 17.801V21.48C137.567 21.6447 137.506 21.7833 137.385 21.896C137.272 22.0087 137.133 22.065 136.969 22.065C136.804 22.065 136.665 22.0087 136.553 21.896C136.44 21.7833 136.384 21.6447 136.384 21.48V21.142C135.742 21.8007 134.928 22.13 133.94 22.13ZM134.382 21.09C134.763 21.09 135.131 20.999 135.487 20.817C135.842 20.6263 136.141 20.3923 136.384 20.115V19.023H134.967C133.658 19.023 133.004 19.3653 133.004 20.05C133.004 20.362 133.108 20.6133 133.316 20.804C133.532 20.9947 133.888 21.09 134.382 21.09ZM140.498 14.018C140.316 14.018 140.16 13.953 140.03 13.823C139.9 13.693 139.835 13.537 139.835 13.355V13.303C139.835 13.121 139.9 12.965 140.03 12.835C140.16 12.705 140.316 12.64 140.498 12.64H140.576C140.758 12.64 140.914 12.705 141.044 12.835C141.174 12.965 141.239 13.121 141.239 13.303V13.355C141.239 13.537 141.174 13.693 141.044 13.823C140.914 13.953 140.758 14.018 140.576 14.018H140.498ZM140.524 22.065C140.36 22.065 140.221 22.0087 140.108 21.896C139.996 21.7833 139.939 21.6447 139.939 21.48V15.903C139.939 15.7383 139.996 15.5997 140.108 15.487C140.221 15.3657 140.36 15.305 140.524 15.305C140.698 15.305 140.841 15.3613 140.953 15.474C141.066 15.5867 141.122 15.7297 141.122 15.903V21.48C141.122 21.6447 141.062 21.7833 140.94 21.896C140.828 22.0087 140.689 22.065 140.524 22.065ZM144.152 22.065C143.987 22.065 143.848 22.0087 143.736 21.896C143.623 21.7833 143.567 21.6447 143.567 21.48V13.043C143.567 12.8783 143.623 12.7397 143.736 12.627C143.848 12.5057 143.987 12.445 144.152 12.445C144.325 12.445 144.468 12.5013 144.581 12.614C144.693 12.7267 144.75 12.8697 144.75 13.043V21.48C144.75 21.6447 144.689 21.7833 144.568 21.896C144.455 22.0087 144.316 22.065 144.152 22.065Z" fill="white"/>
</svg>
