<svg xmlns="http://www.w3.org/2000/svg" width="3393" height="906" fill="none" viewBox="0 0 3393 906"><rect width="3392.23" height="906" fill="#fff" rx="63.209"/><path stroke="#20808D" stroke-miterlimit="10" stroke-width="21.07" d="M622.946 113.736L422.889 313.983H622.946V113.736ZM622.946 113.736V168.559M422.425 84.2803V842.792M622.946 514.188L422.889 313.941M622.946 514.188V801.263L422.889 601.016M622.946 514.188L422.868 313.941M622.946 514.188L622.925 599.857H708.785V313.941H422.868M422.889 313.941V601.016M422.889 313.941L222.81 514.188M422.889 601.016L222.81 801.263V514.188M222.81 514.188L222.789 599.857H136.951V313.941H422.868M222.81 514.188L422.868 313.941M422.868 313.983L222.789 113.736V313.983H422.868Z"/><path fill="#13343B" d="M1294.95 358.78C1307.44 335.414 1324.91 317.42 1347.43 304.757C1369.92 292.137 1396.29 285.816 1426.55 285.816C1456.81 285.816 1481.86 292.031 1502.82 304.483C1523.81 316.936 1539.51 333.433 1549.89 353.976C1560.28 374.54 1565.48 397.064 1565.48 421.547V455.469H1330.11C1332.01 484.883 1341.93 508.27 1359.89 525.611C1377.84 542.972 1401.94 551.632 1432.22 551.632C1456.79 551.632 1475.62 546.638 1488.64 536.651C1501.71 526.664 1511.23 512.821 1517.3 495.081H1571.19C1564.01 522.598 1549.37 546.47 1527.24 566.633C1505.14 586.818 1473.45 596.89 1432.24 596.89C1401.22 596.89 1373.9 590.569 1350.26 577.948C1326.64 565.327 1308.37 547.312 1295.52 523.925C1282.67 500.538 1276.24 473.021 1276.24 441.332C1276.24 409.643 1282.48 382.147 1294.97 358.759L1294.95 358.78ZM1508.79 413.056C1508.79 387.414 1502.17 367.356 1488.94 352.817C1475.71 338.3 1454.91 331.052 1426.53 331.052C1400.07 331.052 1378.41 338.111 1361.59 352.249C1344.76 366.386 1334.45 386.677 1330.68 413.056H1508.79ZM1636.19 294.286V341.229C1636.19 343.884 1637.52 345.19 1640.18 345.19C1641.69 345.19 1642.81 344.811 1643.59 344.052C1644.37 343.294 1645.11 341.798 1645.84 339.544C1655.66 308.634 1680.06 293.169 1719.02 293.169H1743.97V344.052H1711.62C1686.28 344.052 1667.38 350.078 1654.88 362.151C1642.39 374.224 1636.15 394.009 1636.15 421.547V588.399H1585.1V294.265H1636.19V294.286ZM2043.73 526.453C2030.31 550.009 2012.9 567.645 1991.54 579.318C1970.17 590.99 1947.18 596.848 1922.62 596.848C1874.22 596.848 1840.17 577.632 1820.51 539.159C1819 536.167 1817.1 534.65 1814.85 534.65C1812.59 534.65 1811.43 535.787 1811.43 538.042V695.833H1760.38V294.307H1811.43V344.642C1811.43 346.897 1812.57 348.035 1814.85 348.035C1817.12 348.035 1819 346.518 1820.51 343.526C1840.17 305.052 1874.22 285.837 1922.62 285.837C1947.18 285.837 1970.17 291.694 1991.54 303.367C2012.9 315.039 2030.28 332.675 2043.73 356.252C2057.15 379.808 2063.87 408.21 2063.87 441.353C2063.87 474.495 2057.15 502.876 2043.73 526.453ZM1984.73 360.171C1966 340.745 1941.33 331.031 1910.71 331.031C1880.1 331.031 1855.4 340.745 1836.69 360.171C1817.96 379.597 1811.1 406.651 1811.1 441.332C1811.1 476.012 1817.96 503.087 1836.69 522.492C1855.43 541.919 1880.1 551.632 1910.71 551.632C1941.33 551.632 1966.02 541.94 1984.73 522.492C2003.46 503.066 2012.82 476.012 2012.82 441.332C2012.82 406.651 2003.46 379.597 1984.73 360.171ZM2137.95 181.162V588.378H2086.9V181.204H2137.95V181.162ZM2179.98 358.759C2192.46 335.393 2209.95 317.399 2232.47 304.736C2254.95 292.116 2281.33 285.795 2311.57 285.795C2341.8 285.795 2366.89 292.01 2387.86 304.462C2408.84 316.915 2424.54 333.412 2434.93 353.955C2445.34 374.519 2450.52 397.043 2450.52 421.526V455.448H2215.15C2217.05 484.862 2226.97 508.249 2244.92 525.59C2262.87 542.951 2286.98 551.611 2317.25 551.611C2341.82 551.611 2360.64 546.617 2373.68 536.63C2386.74 526.643 2396.27 512.8 2402.33 495.06H2456.23C2449.05 522.577 2434.38 546.449 2412.28 566.612C2390.18 586.797 2358.49 596.869 2317.28 596.869C2286.26 596.869 2258.93 590.548 2235.29 577.927C2211.67 565.306 2193.41 547.291 2180.55 523.904C2167.7 500.517 2161.27 472.999 2161.27 441.311C2161.27 409.622 2167.51 382.126 2180.01 358.738H2179.98V358.759ZM2393.82 413.035C2393.82 387.393 2387.21 367.335 2373.97 352.796C2360.74 338.279 2339.95 331.031 2311.57 331.031C2285.12 331.031 2263.44 338.09 2246.63 352.228C2229.79 366.365 2219.51 386.656 2215.72 413.035H2393.82ZM2427.81 577.063L2544.64 432.819L2448.79 305.579V294.265H2504.94L2584.95 403.975L2671.16 294.265H2728.43V306.148L2618.4 441.332L2719.94 577.063V588.378H2664.93L2578.14 470.176L2485.14 588.378H2427.85V577.063H2427.81ZM2802.55 198.545V262.196H2742.93V198.545H2802.55ZM2799.46 588.399H2748.38V294.286H2799.46V588.399ZM2815.55 294.286H2871.09V215.106H2922.17V294.286H2980.61L2994.96 337.394H2922.17V478.098C2922.17 497.314 2921.68 511.557 2920.73 520.807C2919.79 530.056 2919.32 535.619 2919.32 537.494C2919.32 540.149 2920.06 542.214 2921.58 543.71C2923.09 545.227 2925.16 545.964 2927.83 545.964C2929.71 545.964 2935.29 545.501 2944.56 544.552C2953.81 543.604 2968.1 543.141 2987.4 543.141H3007.25V588.378H2967.55C2935.02 588.378 2910.81 580.476 2894.94 564.611C2879.08 548.766 2871.12 524.663 2871.12 492.215V337.373H2815.6V294.265H2815.55V294.286ZM2996 294.286H3048.04L3132.55 541.034C3133.71 544.068 3135.5 548.05 3141.29 548.05C3147.09 548.05 3148.88 544.047 3150.02 541.034L3234.53 294.286H3283.07V305.6L3177.34 622.89C3168.26 650.049 3155.51 668.99 3139.08 679.736C3122.62 690.482 3103.51 695.854 3071.72 695.854H3017.28V650.618H3058.7C3071.93 650.618 3082.7 651.081 3091.02 652.029C3099.32 652.977 3104.63 653.441 3106.91 653.441C3113.33 653.441 3117.67 650.618 3119.97 644.971L3135.86 601.989C3137.75 597.48 3137.92 594.087 3136.43 591.791C3135.67 590.274 3134.74 589.326 3133.6 588.967C3132.46 588.588 3130.76 588.399 3128.5 588.399H3093.91L2996.04 294.307H2996V294.286ZM1243.79 526.938C1230.37 550.494 1212.97 568.129 1191.6 579.802C1170.24 591.475 1147.25 597.332 1122.68 597.332C1074.29 597.332 1040.24 578.117 1020.58 539.643C1019.06 536.651 1017.17 535.134 1014.91 535.134C1012.66 535.134 1011.5 536.272 1011.5 538.526V696.318H960.445V294.791H1011.5V345.127C1011.5 347.382 1012.64 348.519 1014.91 348.519C1017.19 348.519 1019.06 347.002 1020.58 344.01C1040.22 305.537 1074.29 286.321 1122.68 286.321C1147.25 286.321 1170.24 292.179 1191.6 303.851C1212.97 315.524 1230.35 333.159 1243.79 356.715C1257.21 380.271 1263.93 408.673 1263.93 441.837C1263.93 475.001 1257.21 503.382 1243.79 526.938ZM1184.8 360.655C1166.07 341.229 1141.39 331.516 1110.78 331.516C1080.16 331.516 1055.47 341.229 1036.76 360.655C1018.03 380.082 1011.16 407.135 1011.16 441.816C1011.16 476.497 1018.03 503.572 1036.76 522.977C1055.49 542.403 1080.16 552.116 1110.78 552.116C1141.39 552.116 1166.09 542.424 1184.8 522.977C1203.53 503.551 1212.88 476.497 1212.88 441.816C1212.88 407.135 1203.53 380.082 1184.8 360.655Z"/><g style="mix-blend-mode:difference" opacity=".5"><path fill="#FEFDCE" d="M2905.71 864.442V790.474L2887 796.57L2887.06 864.442H2905.65H2905.71Z"/><path fill="#FEFDCE" d="M2936.89 794.045C2936.9 794.997 2936.9 796.576 2936.9 796.576C2957.85 786.474 2982.49 801.051 2982.49 821.729C2982.49 842.408 2982.66 864.442 2982.66 864.442H2963.61V822.408C2963.61 808.17 2936.89 807.492 2936.89 822.408V864.442H2918.12V790.474H2936.89C2936.89 790.474 2936.88 793.093 2936.89 794.045Z"/><path fill="#FEFDCE" d="M2991.69 813.571C2991.68 797.08 2991.72 792.788 2991.85 792.733L3010.24 792.753V836.069C3010.24 850.069 3037.45 850.476 3037.45 836.069V792.781L3055.75 792.8L3055.75 814.543C3055.75 828.588 3055.66 836.069 3055.66 836.069C3055.66 874.07 2991.85 873.934 2991.82 836.069C2991.82 836.069 2991.69 825.05 2991.69 813.571Z"/><path fill="#FEFDCD" d="M3085.1 758L3066.59 764.047L3066.59 862.749H3085.17L3085.1 758Z"/><path fill="#FEFDCD" d="M3191.83 809.028H3191V828.036C3191 835.494 3200.5 843.019 3211.54 844.555V862.749C3181.92 857.325 3173.32 841.799 3172.46 828.036L3172.6 770.094L3191 764.047V791.017H3211.54V809.028H3201.72H3191.83Z"/><path fill="#FEFDCE" d="M3097.03 811.742C3097.03 795.25 3097.06 790.959 3097.2 790.904L3115.59 790.924V834.239C3115.59 848.24 3142.79 848.647 3142.79 834.239V790.952L3161.1 790.971L3161.1 812.713C3161.1 826.759 3161.01 834.239 3161.01 834.239C3161.01 872.24 3097.2 872.105 3097.16 834.239C3097.16 834.239 3097.03 823.221 3097.03 811.742Z"/><path fill="#FEFDCD" fill-rule="evenodd" d="M3281.74 836.514C3282.56 833.511 3283 830.351 3283 827.089C3283 807.356 3267 791.359 3247.27 791.359C3227.54 791.359 3211.54 807.356 3211.54 827.089C3211.54 846.822 3227.54 862.819 3247.27 862.819C3257.25 862.819 3266.27 858.729 3272.75 852.134L3263.8 843.783L3260.56 840.896C3259.84 842.201 3258.81 843.4 3257.5 844.422C3254.8 846.52 3251.15 847.698 3247.34 847.698C3243.52 847.698 3239.87 846.52 3237.17 844.422C3234.48 842.324 3232.96 839.478 3232.96 836.512H3247.34H3261.71C3261.71 836.512 3261.71 836.513 3261.71 836.514H3281.74ZM3261.71 820.579C3261.71 817.612 3260.2 814.767 3257.5 812.669C3254.81 810.571 3251.15 809.392 3247.34 809.392C3243.53 809.392 3239.87 810.571 3237.18 812.669C3234.48 814.767 3232.97 817.612 3232.97 820.579L3247.34 820.579H3261.71Z" clip-rule="evenodd"/></g></svg>