<svg width="150" height="36" viewBox="0 0 150 36" fill="none" xmlns="http://www.w3.org/2000/svg">
<g clip-path="url(#clip0_95_4)">
<path d="M23.566 1.398L14.071 10.902H23.566V1.398ZM23.566 1.398V4M14.049 0V36M23.566 20.404L14.071 10.9M23.566 20.404V34.029L14.071 24.525M23.566 20.404L14.07 10.9M23.566 20.404L23.565 24.47H27.64V10.9H14.07M14.071 10.9V24.525M14.071 10.9L4.575 20.404M14.071 24.525L4.575 34.029V20.404M4.575 20.404L4.574 24.47H0.5V10.9H14.07M4.575 20.404L14.07 10.9M14.07 10.902L4.574 1.398V10.902H14.07Z" stroke="#20808D" stroke-miterlimit="10"/>
<path d="M55.4619 13.0281C56.0549 11.9191 56.8839 11.0651 57.9529 10.4641C59.0199 9.86514 60.2719 9.56514 61.7079 9.56514C63.1439 9.56514 64.3329 9.86014 65.3279 10.4511C66.3239 11.0421 67.0689 11.8251 67.5619 12.8001C68.0549 13.7761 68.3019 14.8451 68.3019 16.0071V17.6171H57.1309C57.2209 19.0131 57.6919 20.1231 58.5439 20.9461C59.3959 21.7701 60.5399 22.1811 61.9769 22.1811C63.1429 22.1811 64.0369 21.9441 64.6549 21.4701C65.2749 20.9961 65.7269 20.3391 66.0149 19.4971H68.5729C68.2319 20.8031 67.5369 21.9361 66.4869 22.8931C65.4379 23.8511 63.9339 24.3291 61.9779 24.3291C60.5059 24.3291 59.2089 24.0291 58.0869 23.4301C56.9659 22.8311 56.0989 21.9761 55.4889 20.8661C54.8789 19.7561 54.5739 18.4501 54.5739 16.9461C54.5739 15.4421 54.8699 14.1371 55.4629 13.0271L55.4619 13.0281ZM65.6109 15.6041C65.6109 14.3871 65.2969 13.4351 64.6689 12.7451C64.0409 12.0561 63.0539 11.7121 61.7069 11.7121C60.4509 11.7121 59.4229 12.0471 58.6249 12.7181C57.8259 13.3891 57.3369 14.3521 57.1579 15.6041H65.6109ZM71.6579 9.96714V12.1951C71.6579 12.3211 71.7209 12.3831 71.8469 12.3831C71.9189 12.3831 71.9719 12.3651 72.0089 12.3291C72.0459 12.2931 72.0809 12.2221 72.1159 12.1151C72.5819 10.6481 73.7399 9.91414 75.5889 9.91414H76.7729V12.3291H75.2379C74.0349 12.3291 73.1379 12.6151 72.5449 13.1881C71.9519 13.7611 71.6559 14.7001 71.6559 16.0071V23.9261H69.2329V9.96614H71.6579V9.96714ZM90.9999 20.9861C90.3629 22.1041 89.5369 22.9411 88.5229 23.4951C87.5089 24.0491 86.4179 24.3271 85.2519 24.3271C82.9549 24.3271 81.3389 23.4151 80.4059 21.5891C80.3339 21.4471 80.2439 21.3751 80.1369 21.3751C80.0299 21.3751 79.9749 21.4291 79.9749 21.5361V29.0251H77.5519V9.96814H79.9749V12.3571C79.9749 12.4641 80.0289 12.5181 80.1369 12.5181C80.2449 12.5181 80.3339 12.4461 80.4059 12.3041C81.3389 10.4781 82.9549 9.56614 85.2519 9.56614C86.4179 9.56614 87.5089 9.84414 88.5229 10.3981C89.5369 10.9521 90.3619 11.7891 90.9999 12.9081C91.6369 14.0261 91.9559 15.3741 91.9559 16.9471C91.9559 18.5201 91.6369 19.8671 90.9999 20.9861ZM88.1999 13.0941C87.3109 12.1721 86.1399 11.7111 84.6869 11.7111C83.2339 11.7111 82.0619 12.1721 81.1739 13.0941C80.2849 14.0161 79.9589 15.3001 79.9589 16.9461C79.9589 18.5921 80.2849 19.8771 81.1739 20.7981C82.0629 21.7201 83.2339 22.1811 84.6869 22.1811C86.1399 22.1811 87.3119 21.7211 88.1999 20.7981C89.0889 19.8761 89.5329 18.5921 89.5329 16.9461C89.5329 15.3001 89.0889 14.0161 88.1999 13.0941ZM95.4719 4.59814V23.9251H93.0489V4.60014H95.4719V4.59814ZM97.4669 13.0271C98.0589 11.9181 98.8889 11.0641 99.9579 10.4631C101.025 9.86414 102.277 9.56414 103.712 9.56414C105.147 9.56414 106.338 9.85914 107.333 10.4501C108.329 11.0411 109.074 11.8241 109.567 12.7991C110.061 13.7751 110.307 14.8441 110.307 16.0061V17.6161H99.1359C99.2259 19.0121 99.6969 20.1221 100.549 20.9451C101.401 21.7691 102.545 22.1801 103.982 22.1801C105.148 22.1801 106.041 21.9431 106.66 21.4691C107.28 20.9951 107.732 20.3381 108.02 19.4961H110.578C110.237 20.8021 109.541 21.9351 108.492 22.8921C107.443 23.8501 105.939 24.3281 103.983 24.3281C102.511 24.3281 101.214 24.0281 100.092 23.4291C98.9709 22.8301 98.1039 21.9751 97.4939 20.8651C96.8839 19.7551 96.5789 18.4491 96.5789 16.9451C96.5789 15.4411 96.8749 14.1361 97.4679 13.0261H97.4669V13.0271ZM107.616 15.6031C107.616 14.3861 107.302 13.4341 106.674 12.7441C106.046 12.0551 105.059 11.7111 103.712 11.7111C102.457 11.7111 101.428 12.0461 100.63 12.7171C99.8309 13.3881 99.3429 14.3511 99.1629 15.6031H107.616ZM109.229 23.3881L114.774 16.5421L110.225 10.5031V9.96614H112.89L116.687 15.1731L120.779 9.96614H123.497V10.5301L118.275 16.9461L123.094 23.3881V23.9251H120.483L116.364 18.3151L111.95 23.9251H109.231V23.3881H109.229ZM127.015 5.42314V8.44414H124.185V5.42314H127.015ZM126.868 23.9261H124.444V9.96714H126.868V23.9261ZM127.632 9.96714H130.268V6.20914H132.692V9.96714H135.466L136.147 12.0131H132.692V18.6911C132.692 19.6031 132.669 20.2791 132.624 20.7181C132.579 21.1571 132.557 21.4211 132.557 21.5101C132.557 21.6361 132.592 21.7341 132.664 21.8051C132.736 21.8771 132.834 21.9121 132.961 21.9121C133.05 21.9121 133.315 21.8901 133.755 21.8451C134.194 21.8001 134.872 21.7781 135.788 21.7781H136.73V23.9251H134.846C133.302 23.9251 132.153 23.5501 131.4 22.7971C130.647 22.0451 130.269 20.9011 130.269 19.3611V12.0121H127.634V9.96614H127.632V9.96714ZM136.196 9.96714H138.666L142.677 21.6781C142.732 21.8221 142.817 22.0111 143.092 22.0111C143.367 22.0111 143.452 21.8211 143.506 21.6781L147.517 9.96714H149.821V10.5041L144.803 25.5631C144.372 26.8521 143.767 27.7511 142.987 28.2611C142.206 28.7711 141.299 29.0261 139.79 29.0261H137.206V26.8791H139.172C139.8 26.8791 140.311 26.9011 140.706 26.9461C141.1 26.9911 141.352 27.0131 141.46 27.0131C141.765 27.0131 141.971 26.8791 142.08 26.6111L142.834 24.5711C142.924 24.3571 142.932 24.1961 142.861 24.0871C142.825 24.0151 142.781 23.9701 142.727 23.9531C142.673 23.9351 142.592 23.9261 142.485 23.9261H140.843L136.198 9.96814H136.196V9.96714ZM53.0339 21.0091C52.3969 22.1271 51.5709 22.9641 50.5569 23.5181C49.5429 24.0721 48.4519 24.3501 47.2859 24.3501C44.9889 24.3501 43.3729 23.4381 42.4399 21.6121C42.3679 21.4701 42.2779 21.3981 42.1709 21.3981C42.0639 21.3981 42.0089 21.4521 42.0089 21.5591V29.0481H39.5859V9.99114H42.0089V12.3801C42.0089 12.4871 42.0629 12.5411 42.1709 12.5411C42.2789 12.5411 42.3679 12.4691 42.4399 12.3271C43.3719 10.5011 44.9889 9.58914 47.2859 9.58914C48.4519 9.58914 49.5429 9.86714 50.5569 10.4211C51.5709 10.9751 52.3959 11.8121 53.0339 12.9301C53.6709 14.0481 53.9899 15.3961 53.9899 16.9701C53.9899 18.5441 53.6709 19.8911 53.0339 21.0091ZM50.2339 13.1171C49.3449 12.1951 48.1739 11.7341 46.7209 11.7341C45.2679 11.7341 44.0959 12.1951 43.2079 13.1171C42.3189 14.0391 41.9929 15.3231 41.9929 16.9691C41.9929 18.6151 42.3189 19.9001 43.2079 20.8211C44.0969 21.7431 45.2679 22.2041 46.7209 22.2041C48.1739 22.2041 49.3459 21.7441 50.2339 20.8211C51.1229 19.8991 51.5669 18.6151 51.5669 16.9691C51.5669 15.3231 51.1229 14.0391 50.2339 13.1171Z" fill="#D8D8D8"/>
</g>
<defs>
<clipPath id="clip0_95_4">
<rect width="149.82" height="36" fill="white"/>
</clipPath>
</defs>
</svg>
